<?xml version="1.0" standalone="no"?>
<!DOCTYPE svg PUBLIC "-//W3C//DTD SVG 20010904//EN"
 "http://www.w3.org/TR/2001/REC-SVG-20010904/DTD/svg10.dtd">
<svg version="1.0" xmlns="http://www.w3.org/2000/svg"
 width="834.000000pt" height="835.000000pt" viewBox="0 0 834.000000 835.000000"
 preserveAspectRatio="xMidYMid meet">

<g transform="translate(0.000000,835.000000) scale(0.100000,-0.100000)"
fill="#007fa2" stroke="none">
<path d="M811 6063 c234 -236 1072 -1082 1863 -1880 l1438 -1453 178 173 c97
94 950 937 1894 1872 l1717 1700 -1683 6 c-926 3 -2617 7 -3758 8 l-2074 1
425 -427z"/>
<path d="M380 3642 l0 -2042 3725 0 3725 0 0 2042 0 2043 -262 -261 c-331
-327 -2935 -2911 -3239 -3211 l-225 -224 -1695 1682 c-932 925 -1769 1756
-1861 1848 l-168 166 0 -2043z"/>
</g>
</svg>
