<?xml version="1.0" standalone="no"?>
<!DOCTYPE svg PUBLIC "-//W3C//DTD SVG 20010904//EN"
 "http://www.w3.org/TR/2001/REC-SVG-20010904/DTD/svg10.dtd">
<svg version="1.0" xmlns="http://www.w3.org/2000/svg"
 width="835.000000pt" height="835.000000pt" viewBox="0 0 835.000000 835.000000"
 preserveAspectRatio="xMidYMid meet">

<g transform="translate(0.000000,835.000000) scale(0.100000,-0.100000)"
fill="#007fa2" stroke="none">
<path d="M260 7694 c0 -3 647 -851 1438 -1885 790 -1034 1438 -1884 1440
-1889 2 -5 -381 -462 -850 -1017 -469 -554 -1050 -1242 -1292 -1528 -242 -286
-475 -562 -519 -612 l-79 -93 626 0 626 0 1044 1235 1044 1235 279 -364 c153
-201 577 -756 943 -1235 l665 -871 1238 0 c680 0 1237 3 1237 6 0 3 -95 130
-212 282 -116 152 -318 417 -448 587 -131 171 -723 946 -1318 1723 l-1080
1413 412 487 c684 809 2110 2496 2125 2515 13 16 -19 17 -610 17 l-624 0 -885
-1047 c-961 -1137 -1011 -1196 -1015 -1191 -4 4 -217 282 -1045 1367 l-665
871 -1237 0 c-681 0 -1238 -3 -1238 -6z m2987 -1857 c479 -628 1439 -1884
2133 -2792 l1261 -1650 -327 -3 c-180 -1 -328 -1 -329 0 -2 5 -1730 2266
-3016 3948 -679 888 -1238 1621 -1242 1628 -7 9 60 12 320 11 l328 0 872
-1142z"/>
</g>
</svg>
