<svg id="Layer_1" data-name="Layer 1" xmlns="http://www.w3.org/2000/svg" viewBox="0 0 38.53 47.72"><defs><style>.cls-1{fill:#29c3ec;}</style></defs><title>documento</title><path class="cls-1" d="M11763.89,5735.76l-8.26-8.25a0.89,0.89,0,0,0-.73-0.27h-28.36a0.91,0.91,0,0,0-.91.91V5774a0.91,0.91,0,0,0,.91.91h36.69a0.9,0.9,0,0,0,.9-0.92v-37.41A0.94,0.94,0,0,0,11763.89,5735.76Zm-8-5.4,5.13,5.13h-5.12v-5.13Zm-28.43,42.75v-44h26.6v7.34a0.91,0.91,0,0,0,.91.91h7.34v35.79h-34.85Z" transform="translate(-11725.63 -5727.24)"/><path class="cls-1" d="M11755.58,5754.55c-0.36-.68-1.23-1-2.66-1a18,18,0,0,0-3.07.32,28.76,28.76,0,0,1-4.65-6.82c0.19-.81.38-1.62,0.52-2.44a8.36,8.36,0,0,0,.15-3,2.34,2.34,0,0,0-.57-1,1.42,1.42,0,0,0-.9-0.59,4.75,4.75,0,0,0-.92.15,1.74,1.74,0,0,0-1,1.1c-0.64,1.49.24,4,1.15,6a60.66,60.66,0,0,1-3.46,9.71c-3.46,1.57-5.3,3.1-5.47,4.58a2.12,2.12,0,0,0,1,2,1.47,1.47,0,0,0,.88.29c0.79,0,1.61-.6,2.55-1.9a25.88,25.88,0,0,0,2.18-3.84,44.51,44.51,0,0,1,8.07-2.55c1.44,1.36,2.74,2.06,3.85,2.06a2.46,2.46,0,0,0,2-1.07A1.8,1.8,0,0,0,11755.58,5754.55Zm-19,7.73a0.69,0.69,0,0,1-.4-0.62c0.05-.5.85-1.4,2.81-2.47C11737.51,5761.88,11736.71,5762.23,11736.57,5762.28Zm7.5-20.69s1,1,.09,2.9A2.14,2.14,0,0,1,11744.08,5741.59Zm-1.89,14.47a62.53,62.53,0,0,0,2.44-6.82,30.83,30.83,0,0,0,3.49,5A44.8,44.8,0,0,0,11742.18,5756.05Zm11.79-.43a1.39,1.39,0,0,1-1.11.4c-0.48,0-.67-0.29-1.42-0.85a13.73,13.73,0,0,1,1.65-.1,1.74,1.74,0,0,1,1.07.18A1.16,1.16,0,0,1,11754,5755.63Z" transform="translate(-11725.63 -5727.24)"/></svg>