<?xml version="1.0" encoding="utf-8"?>
<!-- Generator: Adobe Illustrator 27.6.1, SVG Export Plug-In . SVG Version: 6.00 Build 0)  -->
<svg version="1.1" id="Capa_1" xmlns="http://www.w3.org/2000/svg" xmlns:xlink="http://www.w3.org/1999/xlink" x="0px" y="0px"
	 viewBox="0 0 1918 486" style="enable-background:new 0 0 1918 486;" xml:space="preserve">
<style type="text/css">
	.st0{fill:#FFFFFF;}
</style>
<g>
	<g>
		<g>
			<rect x="582.97" y="96.85" class="st0" width="56.89" height="291.9"/>
			<path class="st0" d="M889.19,396.54c-88.96,0-144.38-68.16-144.38-154.11c0-86.74,57.23-153.25,144.38-153.25
				c87.13,0,144.43,66.51,144.43,153.25C1033.62,328.38,978.19,396.54,889.19,396.54 M889.19,145.26
				c-53.86,0-85.54,47.65-85.54,94.85c0,44.9,22.49,100.3,85.54,100.3c63.14,0,85.55-55.4,85.55-100.3
				C974.74,192.9,943.01,145.26,889.19,145.26"/>
			<path class="st0" d="M1276.26,161.12c-10.87-14.73-24.74-24.01-43.7-24.01c-18.17,0-35.61,13.99-35.61,32.88
				c0,49.18,115.76,28.65,115.76,126.64c0,58.47-36.46,99.89-96.06,99.89c-40.25,0-69.63-23.29-89.76-56.93l36.74-35.98
				c7.7,22.42,28.31,42.57,52.67,42.57c23.22,0,37.58-19.73,37.58-42.2c0-30.18-27.91-38.77-50.73-47.61
				c-37.6-15.53-65.1-34.45-65.1-79.77c0-48.38,36.04-87.44,85.25-87.44c25.83,0,61.92,12.73,79.72,32.44L1276.26,161.12z"/>
			<polygon class="st0" points="1492.34,146.39 1492.34,210.71 1574.84,210.71 1574.84,260.25 1492.34,260.25 1492.34,388.75 
				1435.44,388.75 1435.44,96.85 1580.21,96.85 1580.21,146.39 			"/>
			<path class="st0" d="M1733.38,327.18l-24.05,61.57h-60.02l113.91-299.58h44.14L1918,388.75h-60.66l-22.53-61.57H1733.38z
				 M1782.54,174.69h-0.74l-32.17,106.1h69.26L1782.54,174.69z"/>
		</g>
		<g>
			<path class="st0" d="M406.33,137.33C387.47,44.73,297.07-15.06,204.56,3.79C132.59,18.43,80.51,76.19,69.65,144.61
				c23.09-23.63,53.31-40.88,88.18-48.01c92.53-18.81,182.95,40.98,201.81,133.57c4.17,20.69,4.4,41.26,1.29,61.03
				C399.2,251.95,418.07,195.11,406.33,137.33"/>
			<path class="st0" d="M191.17,369.96c-18.79-9.65-34.97-22.36-48.34-37.15c6.56,54.43,39.09,104.75,91.47,131.75
				c83.99,43.26,187.21,10.3,230.51-73.72c33.58-65.2,21.19-141.99-25.32-193.32c3.95,32.83-1.56,67.17-17.77,98.78
				C378.34,380.28,275.14,413.23,191.17,369.96"/>
			<path class="st0" d="M190.92,181.8c18.42-10.27,37.99-16.66,57.71-19.66c-48.91-24.7-108.83-25.52-160.35,3.07
				c-82.62,45.86-112.51,150-66.59,232.64C57.27,462,128.04,494.29,196.6,484.1c-29.5-14.95-55.08-38.53-72.34-69.66
				C78.39,331.82,108.27,227.67,190.92,181.8"/>
		</g>
	</g>
</g>
</svg>
