<svg id="Layer_1" data-name="Layer 1" xmlns="http://www.w3.org/2000/svg" viewBox="0 0 366.1 127.51"><defs><style>.cls-1{fill:#fff;}</style></defs><title>logo-defensa</title><path class="cls-1" d="M206,131.13l-2.21-6.76a0.56,0.56,0,0,0-.54-0.39h-9.41a0.56,0.56,0,0,0-.54.39l-2.21,6.76a0.57,0.57,0,0,1-.54.39h-3.44a0.56,0.56,0,0,1-.53-0.74L195,105.7a0.57,0.57,0,0,1,.54-0.38h6a0.56,0.56,0,0,1,.53.38l8.44,25.07a0.56,0.56,0,0,1-.54.74h-3.48a0.57,0.57,0,0,1-.54-0.39m-10.57-10.94h6.22a0.56,0.56,0,0,0,.54-0.74l-3.12-9.51a0.56,0.56,0,0,0-1.07,0l-3.1,9.51a0.57,0.57,0,0,0,.54.74" transform="translate(-81.65 -31.95)"/><path class="cls-1" d="M214,112.2h2.77a0.57,0.57,0,0,1,.56.49l0.28,2h0.25a5.46,5.46,0,0,1,2.24-2.06,6.76,6.76,0,0,1,3.05-.69,9.41,9.41,0,0,1,1,.06,0.57,0.57,0,0,1,.5.57v3.07a0.56,0.56,0,0,1-.61.56c-0.35,0-.75,0-1.2,0a6.9,6.9,0,0,0-2.72.57,4.94,4.94,0,0,0-2,1.45,0.58,0.58,0,0,0-.12.36V131a0.56,0.56,0,0,1-.56.56H214a0.56,0.56,0,0,1-.56-0.56V112.77a0.57,0.57,0,0,1,.56-0.57" transform="translate(-81.65 -31.95)"/><path class="cls-1" d="M230.33,139.46a20.55,20.55,0,0,1-2.62-.5,0.57,0.57,0,0,1-.42-0.55V135.9a0.57,0.57,0,0,1,.71-0.54,20.77,20.77,0,0,0,5.15.69,8.71,8.71,0,0,0,3.22-.5,3.5,3.5,0,0,0,1.83-1.62,6.26,6.26,0,0,0,.59-2.94v-1.52h-0.23a6.25,6.25,0,0,1-2.2,1.63,7.1,7.1,0,0,1-2.93.58,7.2,7.2,0,0,1-3.75-1,7,7,0,0,1-2.69-3.12,12.28,12.28,0,0,1-1-5.3q0-5.1,2.66-7.72t7.89-2.64a25.64,25.64,0,0,1,3.6.26,20.43,20.43,0,0,1,2.91.62,0.56,0.56,0,0,1,.4.54v16.82a11.79,11.79,0,0,1-1.09,5.45,6.65,6.65,0,0,1-3.28,3.08,13.71,13.71,0,0,1-5.58,1,25.51,25.51,0,0,1-3.16-.2m6.82-12a4.19,4.19,0,0,0,1.5-1,0.57,0.57,0,0,0,.16-0.4v-9.84a0.58,0.58,0,0,0-.46-0.56,12,12,0,0,0-2.19-.21A5.26,5.26,0,0,0,232,117q-1.37,1.52-1.37,4.85t1.15,4.67a4.09,4.09,0,0,0,3.29,1.35,5.52,5.52,0,0,0,2-.39" transform="translate(-81.65 -31.95)"/><path class="cls-1" d="M263.17,123.25H252.39a0.57,0.57,0,0,0-.56.64,6.09,6.09,0,0,0,.66,2.35,3.58,3.58,0,0,0,1.91,1.6,9.94,9.94,0,0,0,3.45.49,19.49,19.49,0,0,0,4.16-.51,0.57,0.57,0,0,1,.69.55v2.36a0.57,0.57,0,0,1-.44.55,22.33,22.33,0,0,1-5,.59,13.36,13.36,0,0,1-5.67-1,6.88,6.88,0,0,1-3.32-3.25,12.86,12.86,0,0,1-1.1-5.73,13.21,13.21,0,0,1,1-5.47,7.18,7.18,0,0,1,2.92-3.35,9,9,0,0,1,4.62-1.13,7.27,7.27,0,0,1,6,2.54q2.05,2.54,2.05,7.55v0.69a0.57,0.57,0,0,1-.56.57m-10.38-7a6.71,6.71,0,0,0-1,3.68,0.56,0.56,0,0,0,.57.59h6.46a0.56,0.56,0,0,0,.57-0.59,7,7,0,0,0-1-3.68,3.21,3.21,0,0,0-2.77-1.27,3.37,3.37,0,0,0-2.85,1.27" transform="translate(-81.65 -31.95)"/><path class="cls-1" d="M267.75,112.2h2.79a0.56,0.56,0,0,1,.56.48l0.24,1.56h0.25a7.43,7.43,0,0,1,2.59-1.74,8.46,8.46,0,0,1,3.2-.6,6.33,6.33,0,0,1,4.73,1.76q1.73,1.76,1.73,5.57V131a0.56,0.56,0,0,1-.56.56h-3.51a0.56,0.56,0,0,1-.56-0.56V119.5a3.82,3.82,0,0,0-.81-2.75,3.2,3.2,0,0,0-2.37-.82,5.77,5.77,0,0,0-2.3.49,4.74,4.74,0,0,0-1.76,1.3,0.56,0.56,0,0,0-.13.37V131a0.56,0.56,0,0,1-.56.56h-3.51a0.56,0.56,0,0,1-.56-0.56V112.77a0.57,0.57,0,0,1,.56-0.57" transform="translate(-81.65 -31.95)"/><path class="cls-1" d="M299.8,128.44V131a0.57,0.57,0,0,1-.45.56,14.75,14.75,0,0,1-2.89.29q-6.87,0-6.87-6.92v-8.48a0.56,0.56,0,0,0-.56-0.57h-2.2a0.56,0.56,0,0,1-.56-0.56v-2.57a0.56,0.56,0,0,1,.56-0.57h2.26a0.56,0.56,0,0,0,.56-0.5l0.7-5.89a0.56,0.56,0,0,1,.56-0.5h2.76a0.56,0.56,0,0,1,.56.56v5.76a0.56,0.56,0,0,0,.56.56h4.27a0.56,0.56,0,0,1,.56.57v2.57a0.56,0.56,0,0,1-.56.56h-4.27a0.57,0.57,0,0,0-.56.57v7.74a5.7,5.7,0,0,0,.37,2.25,2.29,2.29,0,0,0,1.11,1.19,4.52,4.52,0,0,0,2,.36,10.14,10.14,0,0,0,1.5-.13,0.56,0.56,0,0,1,.64.56" transform="translate(-81.65 -31.95)"/><path class="cls-1" d="M303.19,108.25a2.36,2.36,0,0,1-.73-1.87,2.39,2.39,0,0,1,.73-1.88,4,4,0,0,1,4.41,0,2.39,2.39,0,0,1,.73,1.88,2.36,2.36,0,0,1-.73,1.87,4.09,4.09,0,0,1-4.41,0M303.05,131V112.77a0.56,0.56,0,0,1,.56-0.57h3.53a0.57,0.57,0,0,1,.56.57V131a0.56,0.56,0,0,1-.56.56h-3.53a0.56,0.56,0,0,1-.56-0.56" transform="translate(-81.65 -31.95)"/><path class="cls-1" d="M312.07,112.2h2.79a0.57,0.57,0,0,1,.56.48l0.25,1.56h0.25a7.42,7.42,0,0,1,2.59-1.74,8.47,8.47,0,0,1,3.2-.6,6.33,6.33,0,0,1,4.73,1.76q1.73,1.76,1.74,5.57V131a0.56,0.56,0,0,1-.56.56h-3.51a0.56,0.56,0,0,1-.56-0.56V119.5a3.83,3.83,0,0,0-.81-2.75,3.2,3.2,0,0,0-2.37-.82,5.77,5.77,0,0,0-2.3.49,4.75,4.75,0,0,0-1.76,1.3,0.57,0.57,0,0,0-.13.37V131a0.56,0.56,0,0,1-.56.56h-3.51a0.56,0.56,0,0,1-.56-0.56V112.77a0.56,0.56,0,0,1,.56-0.57" transform="translate(-81.65 -31.95)"/><path class="cls-1" d="M343.8,112.64a5.16,5.16,0,0,1,2.72,2.42,9.81,9.81,0,0,1,.89,4.57V131a0.56,0.56,0,0,1-.56.56h-2.8a0.57,0.57,0,0,1-.56-0.47l-0.24-1.53H343a5.47,5.47,0,0,1-2.24,1.75,7.59,7.59,0,0,1-3,.59,7.39,7.39,0,0,1-3.27-.67,4.86,4.86,0,0,1-2.12-1.9,5.53,5.53,0,0,1-.73-2.89,5,5,0,0,1,1.84-4.16q1.84-1.47,5.82-1.79l3.61-.34v-0.76a4.79,4.79,0,0,0-.47-2.31,2.61,2.61,0,0,0-1.47-1.19,8.28,8.28,0,0,0-2.68-.35,17.81,17.81,0,0,0-2.57.2,17.42,17.42,0,0,0-1.94.4,0.56,0.56,0,0,1-.72-0.54v-2.38a0.56,0.56,0,0,1,.41-0.54,18,18,0,0,1,2.53-.5,23.49,23.49,0,0,1,3.07-.21,12.92,12.92,0,0,1,4.76.74m-2.65,15.54a4.54,4.54,0,0,0,1.56-1.07,0.57,0.57,0,0,0,.16-0.4v-3.26a0.57,0.57,0,0,0-.62-0.56l-2.55.23A4.91,4.91,0,0,0,337,124a2.4,2.4,0,0,0-.84,2,2.47,2.47,0,0,0,.75,1.95,3.21,3.21,0,0,0,2.21.68,5.3,5.3,0,0,0,2-.39" transform="translate(-81.65 -31.95)"/><path class="cls-1" d="M204.12,71.29h4.19V90.49h-3.24V76L199.8,87.75h-2.91l-5.27-11.5V90.49h-3.24V71.29h4.19l5.84,13Z" transform="translate(-81.65 -31.95)"/><path class="cls-1" d="M212,73.43a1.73,1.73,0,0,1-.54-1.37,1.75,1.75,0,0,1,.54-1.38,3,3,0,0,1,3.23,0,1.75,1.75,0,0,1,.54,1.38,1.73,1.73,0,0,1-.54,1.37A3,3,0,0,1,212,73.43Zm-0.1,17.06V76.33h3.41V90.49h-3.41Z" transform="translate(-81.65 -31.95)"/><path class="cls-1" d="M218.73,76.33h2.82l0.23,1.49H222a5.42,5.42,0,0,1,1.9-1.27,6.2,6.2,0,0,1,2.34-.44,4.64,4.64,0,0,1,3.46,1.29,5.64,5.64,0,0,1,1.27,4.08v9h-3.4V81.68a2.81,2.81,0,0,0-.6-2,2.34,2.34,0,0,0-1.74-.6,4.23,4.23,0,0,0-1.69.36,3.48,3.48,0,0,0-1.39,1.07v10h-3.4V76.33Z" transform="translate(-81.65 -31.95)"/><path class="cls-1" d="M234.3,73.43a1.73,1.73,0,0,1-.54-1.37,1.75,1.75,0,0,1,.54-1.38,3,3,0,0,1,3.23,0,1.75,1.75,0,0,1,.54,1.38,1.73,1.73,0,0,1-.54,1.37A3,3,0,0,1,234.3,73.43Zm-0.1,17.06V76.33h3.41V90.49H234.2Z" transform="translate(-81.65 -31.95)"/><path class="cls-1" d="M240.56,90.15V87.61a14.71,14.71,0,0,0,4.28.62,4.16,4.16,0,0,0,2.2-.45,1.46,1.46,0,0,0,.7-1.3,1.43,1.43,0,0,0-.36-1.05,2.48,2.48,0,0,0-1.25-.54l-2.15-.4a5.11,5.11,0,0,1-2.85-1.37,3.74,3.74,0,0,1-.9-2.63,3.87,3.87,0,0,1,.69-2.3A4.44,4.44,0,0,1,243,76.66a9.78,9.78,0,0,1,3.5-.55,14,14,0,0,1,3.62.44v2.53a13.48,13.48,0,0,0-3.53-.45q-3.21,0-3.2,1.77a1.37,1.37,0,0,0,.36,1,2.34,2.34,0,0,0,1.21.55l2.15,0.4A5.38,5.38,0,0,1,250,83.67a3.69,3.69,0,0,1,.92,2.68,3.94,3.94,0,0,1-.7,2.35,4.41,4.41,0,0,1-2.06,1.52,9,9,0,0,1-3.28.53A14.44,14.44,0,0,1,240.56,90.15Z" transform="translate(-81.65 -31.95)"/><path class="cls-1" d="M261.62,87.74v2.72a10.83,10.83,0,0,1-2.45.29q-5,0-5-5.07V79h-2.44V76.33h2.44l0.6-5h2.8v5h4V79h-4v6.08a4.19,4.19,0,0,0,.27,1.65,1.69,1.69,0,0,0,.81.88,3.33,3.33,0,0,0,1.44.27A8.57,8.57,0,0,0,261.62,87.74Z" transform="translate(-81.65 -31.95)"/><path class="cls-1" d="M275,84.43h-8.76a5,5,0,0,0,.52,2.19,2.61,2.61,0,0,0,1.4,1.17,7.21,7.21,0,0,0,2.53.36,15.12,15.12,0,0,0,3.56-.49v2.58a16.71,16.71,0,0,1-4,.51,9.8,9.8,0,0,1-4.16-.77,5,5,0,0,1-2.43-2.38,9.44,9.44,0,0,1-.8-4.2,9.69,9.69,0,0,1,.74-4,5.29,5.29,0,0,1,2.14-2.46,6.59,6.59,0,0,1,3.39-.82,5.32,5.32,0,0,1,4.4,1.86,8.67,8.67,0,0,1,1.5,5.54v0.92Zm-8-5.17a5.42,5.42,0,0,0-.75,3.13h5.59a5.63,5.63,0,0,0-.72-3.13,2.35,2.35,0,0,0-2-.93A2.46,2.46,0,0,0,267,79.27Z" transform="translate(-81.65 -31.95)"/><path class="cls-1" d="M277.58,76.33h2.8l0.26,1.84h0.18a4,4,0,0,1,1.64-1.5,5,5,0,0,1,2.24-.51,7.19,7.19,0,0,1,1.13.09v3.09a7.76,7.76,0,0,0-1.32-.09,5.1,5.1,0,0,0-2,.41A3.6,3.6,0,0,0,281,80.85v9.64h-3.4V76.33Z" transform="translate(-81.65 -31.95)"/><path class="cls-1" d="M287.92,73.43a1.73,1.73,0,0,1-.54-1.37,1.75,1.75,0,0,1,.54-1.38,3,3,0,0,1,3.23,0,1.75,1.75,0,0,1,.54,1.38,1.73,1.73,0,0,1-.54,1.37A3,3,0,0,1,287.92,73.43Zm-0.1,17.06V76.33h3.41V90.49h-3.41Z" transform="translate(-81.65 -31.95)"/><path class="cls-1" d="M295.68,88.92a7.65,7.65,0,0,1-1.75-5.48q0-3.67,1.72-5.5a7.41,7.41,0,0,1,9.75,0,7.75,7.75,0,0,1,1.72,5.49,9.24,9.24,0,0,1-.8,4.08A5.36,5.36,0,0,1,304,89.95a7.28,7.28,0,0,1-3.52.8A6.38,6.38,0,0,1,295.68,88.92Zm7.21-1.86a6.17,6.17,0,0,0,.8-3.61,6.29,6.29,0,0,0-.8-3.65,3.16,3.16,0,0,0-4.74,0,6.18,6.18,0,0,0-.8,3.61,8.53,8.53,0,0,0,.37,2.79,2.79,2.79,0,0,0,1.07,1.48,3.12,3.12,0,0,0,1.73.45A2.77,2.77,0,0,0,302.89,87.07Z" transform="translate(-81.65 -31.95)"/><path class="cls-1" d="M318.41,90a5,5,0,0,1-2.05-2.3,9.23,9.23,0,0,1-.76-4A7.73,7.73,0,0,1,317.52,78a7.53,7.53,0,0,1,5.59-1.93,13.72,13.72,0,0,1,1.89.14V69.52h3.4v21h-2.87L325.32,89h-0.18a4.52,4.52,0,0,1-1.61,1.27,5,5,0,0,1-2.19.47A5.86,5.86,0,0,1,318.41,90Zm5.38-2.39a3,3,0,0,0,1.21-.94V78.93a8.78,8.78,0,0,0-1.89-.19A3.94,3.94,0,0,0,320,79.84a5.26,5.26,0,0,0-1,3.59,5.53,5.53,0,0,0,.84,3.48,2.94,2.94,0,0,0,2.4,1A3.73,3.73,0,0,0,323.79,87.62Z" transform="translate(-81.65 -31.95)"/><path class="cls-1" d="M343.27,84.43h-8.76a5,5,0,0,0,.52,2.19,2.61,2.61,0,0,0,1.4,1.17,7.2,7.2,0,0,0,2.53.36,15.12,15.12,0,0,0,3.56-.49v2.58a16.71,16.71,0,0,1-4,.51,9.81,9.81,0,0,1-4.16-.77,5,5,0,0,1-2.43-2.38,9.44,9.44,0,0,1-.8-4.2,9.69,9.69,0,0,1,.74-4A5.29,5.29,0,0,1,334,76.94a6.59,6.59,0,0,1,3.39-.82,5.32,5.32,0,0,1,4.4,1.86,8.67,8.67,0,0,1,1.5,5.54v0.92Zm-8-5.17a5.42,5.42,0,0,0-.75,3.13h5.59a5.63,5.63,0,0,0-.72-3.13,2.35,2.35,0,0,0-2-.93A2.46,2.46,0,0,0,335.25,79.27Z" transform="translate(-81.65 -31.95)"/><path class="cls-1" d="M352.47,90.38V71.68q1.3-.27,2.8-0.43a27.07,27.07,0,0,1,2.91-.16q5.1,0,7.66,2.41t2.56,7.4a11.38,11.38,0,0,1-1.21,5.58,7.25,7.25,0,0,1-3.63,3.18,15.73,15.73,0,0,1-6.1,1A42.57,42.57,0,0,1,352.47,90.38ZM362,87.13a4.54,4.54,0,0,0,2.15-2.24,11.56,11.56,0,0,0,0-8A4.61,4.61,0,0,0,362,74.63a8,8,0,0,0-3.62-.72,15.28,15.28,0,0,0-2.45.22V87.71a20.65,20.65,0,0,0,2.39.12A8.32,8.32,0,0,0,362,87.13Z" transform="translate(-81.65 -31.95)"/><path class="cls-1" d="M382.77,84.43H374a5,5,0,0,0,.52,2.19,2.61,2.61,0,0,0,1.4,1.17,7.2,7.2,0,0,0,2.53.36,15.12,15.12,0,0,0,3.56-.49v2.58a16.71,16.71,0,0,1-4,.51,9.8,9.8,0,0,1-4.16-.77,5,5,0,0,1-2.43-2.38,9.44,9.44,0,0,1-.8-4.2,9.67,9.67,0,0,1,.74-4,5.28,5.28,0,0,1,2.14-2.46,6.59,6.59,0,0,1,3.39-.82,5.32,5.32,0,0,1,4.4,1.86,8.67,8.67,0,0,1,1.5,5.54v0.92Zm-8-5.17A5.42,5.42,0,0,0,374,82.4h5.59a5.63,5.63,0,0,0-.72-3.13,2.35,2.35,0,0,0-2-.93A2.46,2.46,0,0,0,374.75,79.27Z" transform="translate(-81.65 -31.95)"/><path class="cls-1" d="M390.3,72.65a2.71,2.71,0,0,0-.73,2.1v1.58h4V79h-4V90.49H386.2V79h-2.44V76.33h2.44V74.89a5.52,5.52,0,0,1,1.52-4.17,6.07,6.07,0,0,1,4.39-1.47,12.62,12.62,0,0,1,2,.16v2.7a10.79,10.79,0,0,0-1.53-.13A3.32,3.32,0,0,0,390.3,72.65Z" transform="translate(-81.65 -31.95)"/><path class="cls-1" d="M406.55,84.43H397.8a5,5,0,0,0,.52,2.19,2.61,2.61,0,0,0,1.4,1.17,7.2,7.2,0,0,0,2.53.36,15.12,15.12,0,0,0,3.56-.49v2.58a16.72,16.72,0,0,1-4,.51,9.81,9.81,0,0,1-4.16-.77,5,5,0,0,1-2.43-2.38,9.44,9.44,0,0,1-.8-4.2,9.69,9.69,0,0,1,.74-4,5.29,5.29,0,0,1,2.14-2.46,6.59,6.59,0,0,1,3.39-.82A5.32,5.32,0,0,1,405,78a8.66,8.66,0,0,1,1.51,5.54v0.92Zm-8-5.17a5.42,5.42,0,0,0-.75,3.13h5.59a5.63,5.63,0,0,0-.72-3.13,2.35,2.35,0,0,0-2-.93A2.46,2.46,0,0,0,398.54,79.27Z" transform="translate(-81.65 -31.95)"/><path class="cls-1" d="M409.09,76.33h2.82l0.23,1.49h0.18a5.42,5.42,0,0,1,1.9-1.27,6.2,6.2,0,0,1,2.34-.44A4.65,4.65,0,0,1,420,77.4a5.64,5.64,0,0,1,1.27,4.08v9h-3.4V81.68a2.81,2.81,0,0,0-.6-2,2.34,2.34,0,0,0-1.74-.6,4.23,4.23,0,0,0-1.69.36,3.48,3.48,0,0,0-1.39,1.07v10h-3.4V76.33Z" transform="translate(-81.65 -31.95)"/><path class="cls-1" d="M424.13,90.15V87.61a14.72,14.72,0,0,0,4.28.62,4.16,4.16,0,0,0,2.2-.45,1.46,1.46,0,0,0,.7-1.3,1.43,1.43,0,0,0-.36-1.05,2.49,2.49,0,0,0-1.25-.54l-2.15-.4a5.11,5.11,0,0,1-2.85-1.37,3.75,3.75,0,0,1-.89-2.63,3.88,3.88,0,0,1,.69-2.3,4.45,4.45,0,0,1,2.11-1.52,9.78,9.78,0,0,1,3.5-.55,14,14,0,0,1,3.62.44v2.53a13.47,13.47,0,0,0-3.53-.45q-3.21,0-3.2,1.77a1.37,1.37,0,0,0,.36,1,2.35,2.35,0,0,0,1.21.55l2.15,0.4a5.37,5.37,0,0,1,2.86,1.33,3.68,3.68,0,0,1,.92,2.68,3.94,3.94,0,0,1-.7,2.35,4.41,4.41,0,0,1-2.06,1.52,9,9,0,0,1-3.28.53A14.44,14.44,0,0,1,424.13,90.15Z" transform="translate(-81.65 -31.95)"/><path class="cls-1" d="M445.11,76.65a3.78,3.78,0,0,1,2,1.77,7.19,7.19,0,0,1,.66,3.35v8.72h-2.82L444.71,89h-0.18a4,4,0,0,1-1.64,1.28,5.54,5.54,0,0,1-2.22.43,5.45,5.45,0,0,1-2.4-.49,3.58,3.58,0,0,1-1.55-1.4,4.06,4.06,0,0,1-.54-2.12,3.67,3.67,0,0,1,1.35-3,7.87,7.87,0,0,1,4.27-1.31l2.65-.25V81.56a3.5,3.5,0,0,0-.34-1.69A1.91,1.91,0,0,0,443,79a6.06,6.06,0,0,0-2-.26,12.82,12.82,0,0,0-1.88.15,12.35,12.35,0,0,0-1.95.45V76.72a13.08,13.08,0,0,1,2.15-.45,17.24,17.24,0,0,1,2.25-.16A9.48,9.48,0,0,1,445.11,76.65ZM443.17,88a3.4,3.4,0,0,0,1.27-.91v-3l-2.32.21a3.59,3.59,0,0,0-2,.64,1.76,1.76,0,0,0-.62,1.43,1.82,1.82,0,0,0,.55,1.43,2.35,2.35,0,0,0,1.62.49A3.87,3.87,0,0,0,443.17,88Z" transform="translate(-81.65 -31.95)"/><path class="cls-1" d="M123.69,48.58V48.52l0,0.06a20.16,20.16,0,0,1,3.11-.28c2.92,0,3.37,1,3.41,1.08a0.43,0.43,0,0,0,.4.24l0.15,0a0.24,0.24,0,0,0,.18-0.11,0.36,0.36,0,0,0,0-.32s-0.69-1.89-3.68-2.21a12.44,12.44,0,0,0-3.33.1c-0.46.08-.61,1.17-0.61,1.18a0.3,0.3,0,0,0,.06.28,0.4,0.4,0,0,0,.32.06" transform="translate(-81.65 -31.95)"/><path class="cls-1" d="M118.72,49.83h0a7.08,7.08,0,0,0-2.3-.25c-2.54.09-3.26,1.67-3.27,1.69a0.44,0.44,0,0,0,0,.39,0.3,0.3,0,0,0,.2.13,0.55,0.55,0,0,0,.68-0.27,1.64,1.64,0,0,1,1.27-.77,0.06,0.06,0,0,1,.07.08,1.29,1.29,0,1,0,2.38,0,0.06,0.06,0,0,1,0-.06,0.06,0.06,0,0,1,.06,0,1.8,1.8,0,0,1,1,.9,0.69,0.69,0,0,0,.74.24,0.42,0.42,0,0,0,.33-0.11,0.2,0.2,0,0,0,0-.16,2.56,2.56,0,0,0-1.17-1.76" transform="translate(-81.65 -31.95)"/><path class="cls-1" d="M123.59,51.86a0.69,0.69,0,0,0,.74-0.24,1.78,1.78,0,0,1,1-.9,0.06,0.06,0,0,1,.07,0,0.06,0.06,0,0,1,0,.07,1.27,1.27,0,0,0-.1.51,1.29,1.29,0,1,0,2.57,0,1.32,1.32,0,0,0-.09-0.48,0.06,0.06,0,0,1,0-.06,0.06,0.06,0,0,1,.06,0,1.58,1.58,0,0,1,1.28.78,0.53,0.53,0,0,0,.65.26,0.29,0.29,0,0,0,.22-0.13,0.44,0.44,0,0,0,0-.39s-0.73-1.6-3.27-1.69a6.93,6.93,0,0,0-2.3.25,2.57,2.57,0,0,0-1.16,1.75,0.2,0.2,0,0,0,0,.18,0.43,0.43,0,0,0,.33.11" transform="translate(-81.65 -31.95)"/><path class="cls-1" d="M112.33,49.6h0l0.15,0a0.44,0.44,0,0,0,.4-0.25c0-.07.73-1.72,6.52-0.79a0.43,0.43,0,0,0,.33-0.06,0.3,0.3,0,0,0,.06-0.27s-0.15-1.11-.61-1.19a11.76,11.76,0,0,0-2-.17,11.53,11.53,0,0,0-1.32.07c-3,.32-3.68,2.18-3.68,2.2a0.38,0.38,0,0,0,0,.33,0.25,0.25,0,0,0,.17.1" transform="translate(-81.65 -31.95)"/><path class="cls-1" d="M161.07,112.37a0.65,0.65,0,0,0-.73-0.73c0.15-.3.28-0.61,0.39-0.93a13.81,13.81,0,0,0,.77-4.61,0.65,0.65,0,0,0-.78-0.65c0.11-.29.2-0.6,0.28-0.91a13.82,13.82,0,0,0,.31-4.66,0.65,0.65,0,0,0-.34-0.52,0.66,0.66,0,0,0-.51,0,9.61,9.61,0,0,0,.23-1.07,13.83,13.83,0,0,0-.15-4.67,0.64,0.64,0,0,0-.77-0.52c0-.25.08-0.51,0.11-0.76a13.85,13.85,0,0,0-.36-4.66,0.65,0.65,0,0,0-1-.37l0,0a10.22,10.22,0,0,0,0-1.19,13.82,13.82,0,0,0-1-4.56,0.65,0.65,0,0,0-1-.28,10.23,10.23,0,0,0-.09-1.09,13.83,13.83,0,0,0-1.47-4.44,0.65,0.65,0,0,0-1-.17,9.83,9.83,0,0,0-.2-1,14,14,0,0,0-2-4.24,0.67,0.67,0,0,0-.55-0.29,0.65,0.65,0,0,0-.54.3l0,0a10,10,0,0,0-.43-1.17,13.9,13.9,0,0,0-2.63-3.87,0.65,0.65,0,0,0-1,.1,10.26,10.26,0,0,0-.63-1.13,13.73,13.73,0,0,0-3.15-3.37,0.65,0.65,0,0,0-1,.27,7.63,7.63,0,0,0-3.4-2.55l0.53,0a10.08,10.08,0,0,0,3.29-.3,1,1,0,0,0-.24-1.9,7.13,7.13,0,0,1-3.74-1l-0.28-.16,4.47-.67a1,1,0,0,0,0-1.92l-4.25-.61c0.47-.14.93-0.28,1.35-0.43a10.1,10.1,0,0,0,2.93-1.55,1,1,0,0,0-.94-1.66,7.12,7.12,0,0,1-3.86.48l-0.31,0,3.87-2.33a1,1,0,0,0-.74-1.78l-4.17,1.07c0.38-.31.75-0.62,1.1-0.93a10.09,10.09,0,0,0,2.11-2.55,1,1,0,0,0-.26-1.22,1,1,0,0,0-1.25,0,7.13,7.13,0,0,1-3.38,1.93l-0.29.09,2.68-3.63a1,1,0,0,0-1.36-1.36l-3.46,2.6c0.24-.44.47-0.87,0.67-1.29a10.37,10.37,0,0,0,1-3.17,1,1,0,0,0-1.84-.5,7.18,7.18,0,0,1-2.39,3.09l-0.22.18,1.1-4.37a1,1,0,0,0-1.77-.74l-2.22,3.75c0.06-.51.1-1,0.13-1.47a10.2,10.2,0,0,0-.31-3.31,1,1,0,0,0-1.89.24,7.22,7.22,0,0,1-1,3.76l-0.14.25-0.65-4.45a1,1,0,0,0-1.92,0L120,37c-0.13-.46-0.27-0.91-0.42-1.33a10.31,10.31,0,0,0-1.54-2.94,1,1,0,0,0-1.23-.23,1,1,0,0,0-.43,1.17,7.25,7.25,0,0,1,.47,3.89l0,0.31L114.49,34a1,1,0,0,0-1.77.74l1.07,4.16c-0.3-.38-0.61-0.75-0.9-1.08a10,10,0,0,0-2.55-2.12,1,1,0,0,0-1.22.26,1,1,0,0,0,0,1.25,7.21,7.21,0,0,1,1.92,3.39l0.09,0.31-3.64-2.7a1,1,0,0,0-1.35,1.37L108.77,43c-0.43-.24-0.85-0.46-1.26-0.66a10,10,0,0,0-3.16-1,1,1,0,0,0-.5,1.85,7.21,7.21,0,0,1,3.08,2.41l0.18,0.22-4.38-1.1a1,1,0,0,0-.73,1.78l3.72,2.22c-0.5-.06-1-0.1-1.43-0.12A10.2,10.2,0,0,0,101,49a1,1,0,0,0,.24,1.9,7.15,7.15,0,0,1,3.75,1L105.24,52l-4.45.66a1,1,0,0,0,0,1.93l4.3,0.63c-0.48.14-1,.29-1.39,0.44a10.11,10.11,0,0,0-2.92,1.56,1,1,0,0,0,.95,1.66,8.13,8.13,0,0,1,2.41-.56,17.44,17.44,0,0,0-2,2c-0.2.26-.39,0.52-0.56,0.79a0.65,0.65,0,0,0-1-.21,13.93,13.93,0,0,0-3.21,3.41,10.24,10.24,0,0,0-.63,1.12,0.64,0.64,0,0,0-.46-0.33,0.65,0.65,0,0,0-.59.2,13.91,13.91,0,0,0-2.63,3.87,10,10,0,0,0-.41,1.1,0.65,0.65,0,0,0-.45-0.21,0.64,0.64,0,0,0-.56.27,13.82,13.82,0,0,0-2.15,4.15,10.14,10.14,0,0,0-.27,1.14l0,0a0.64,0.64,0,0,0-.57-0.24,0.65,0.65,0,0,0-.51.35,13.85,13.85,0,0,0-1.51,4.42,10.08,10.08,0,0,0-.1,1.11h0a0.64,0.64,0,0,0-.6-0.16,0.65,0.65,0,0,0-.47.41,13.83,13.83,0,0,0-.94,4.58,10.34,10.34,0,0,0,0,1.09A0.65,0.65,0,0,0,84,87.09a0.66,0.66,0,0,0-.41.46,13.86,13.86,0,0,0-.36,4.66c0,0.28.07,0.55,0.12,0.83a0.66,0.66,0,0,0-.71.53,13.84,13.84,0,0,0-.15,4.67,10.1,10.1,0,0,0,.23,1.1,0.62,0.62,0,0,0-.29.07,0.65,0.65,0,0,0-.36.51,13.79,13.79,0,0,0,.15,4.67c0.07,0.32.15,0.63,0.25,0.94a0.65,0.65,0,0,0-.77.63,13.8,13.8,0,0,0,.64,4.63,9.74,9.74,0,0,0,.49,1.2l-0.14,0a0.64,0.64,0,0,0-.6.15,0.66,0.66,0,0,0-.21.59,13.85,13.85,0,0,0,1.44,4.45c0.14,0.26.28,0.5,0.44,0.74a0.64,0.64,0,0,0-.34.19,0.66,0.66,0,0,0-.16.6A13.87,13.87,0,0,0,85,123a10,10,0,0,0,.62.86,0.64,0.64,0,0,0-.49.26,0.66,0.66,0,0,0-.09.62,13.88,13.88,0,0,0,2.25,4.1c0.21,0.26.43,0.5,0.66,0.73a0.66,0.66,0,0,0-.44.94,13.94,13.94,0,0,0,2.71,3.81c0.23,0.22.47,0.43,0.71,0.63a0.66,0.66,0,0,0-.33,1,13.89,13.89,0,0,0,3.1,3.51,10.52,10.52,0,0,0,1.11.76l-0.2.06a0.64,0.64,0,0,0-.42.46,0.66,0.66,0,0,0,.16.6,16.15,16.15,0,0,0,3.61,2.9,9.74,9.74,0,0,0,3,1.13,6.62,6.62,0,0,0,2.35,0,35.84,35.84,0,0,0,6.78,3.81A33,33,0,0,0,116,151l0.87,0.17,0.67,0.12a10.45,10.45,0,0,0,1.11.29,3.06,3.06,0,0,0-.06.62,3.15,3.15,0,0,0,.08.69,12.14,12.14,0,0,1-6.7,3.31l-0.21,0,0.11,0.18a5.34,5.34,0,0,0,1,1.15l0.05,0h0.07a13.5,13.5,0,0,0,6.46-3.3l0.27,0.25c-0.24.91-1.19,3-4.82,4l-0.39.1,0.37,0.15a8.89,8.89,0,0,0,2.14.58h0l0,0a7.09,7.09,0,0,0,4-4.19,3.07,3.07,0,0,0,1.07,0,7.07,7.07,0,0,0,4,4.19l0,0h0a8.92,8.92,0,0,0,2.14-.58l0.37-.15-0.38-.1c-3.63-1-4.58-3.1-4.82-4a3.1,3.1,0,0,0,.28-0.26,13.45,13.45,0,0,0,6.45,3.29h0.07l0.05,0a5.39,5.39,0,0,0,1-1.15l0.11-.18-0.21,0a12,12,0,0,1-6.68-3.3,3,3,0,0,0,.08-0.71,3.11,3.11,0,0,0-.06-0.62,9.86,9.86,0,0,0,1-.27l0.76-.13c0.94-.16,1.86-0.36,2.73-0.59a32.06,32.06,0,0,0,5.83-2.21,29.19,29.19,0,0,0,5-3.06,6.59,6.59,0,0,0,2.36,0,9.73,9.73,0,0,0,3-1.13,16.13,16.13,0,0,0,3.61-2.9,0.66,0.66,0,0,0,.16-0.6,0.64,0.64,0,0,0-.42-0.46l-0.16-.05a10.19,10.19,0,0,0,1.13-.77,13.87,13.87,0,0,0,3.1-3.51,0.65,0.65,0,0,0,0-.62,0.66,0.66,0,0,0-.37-0.35c0.24-.19.48-0.41,0.71-0.63a14,14,0,0,0,2.72-3.81,0.66,0.66,0,0,0,0-.63,0.64,0.64,0,0,0-.52-0.32c0.25-.25.49-0.52,0.72-0.79a13.92,13.92,0,0,0,2.25-4.1,0.66,0.66,0,0,0-.07-0.59,0.65,0.65,0,0,0-.51-0.29h-0.06c0.21-.26.42-0.53,0.61-0.82a13.87,13.87,0,0,0,1.83-4.3,0.65,0.65,0,0,0-.73-0.81,10.19,10.19,0,0,0,.55-1,13.81,13.81,0,0,0,1.28-4.49M160.32,107h0a0.07,0.07,0,0,1,0,.06,12.12,12.12,0,0,1-.64,3.2,8.07,8.07,0,0,1-1.42,2.5,6.21,6.21,0,0,1-1.7,1.42h0l0,0a7.49,7.49,0,0,1-1.37-4.68,10.47,10.47,0,0,1,.19-1.76,0.06,0.06,0,0,1,.11,0,8.94,8.94,0,0,1,1.31,2.42,0.48,0.48,0,0,0,.43.33h0a0.48,0.48,0,0,0,.43-0.27,8.12,8.12,0,0,1,2.61-3.16,0.07,0.07,0,0,1,.07,0m-0.16-6.1a0.06,0.06,0,0,1,.07,0,0.06,0.06,0,0,1,0,.06,12,12,0,0,1-.32,3.25,8,8,0,0,1-1.16,2.63,6.17,6.17,0,0,1-1.55,1.57h0a0.05,0.05,0,0,1,0,0c-1.66-1.88-1.82-4.68-1.76-6.18a0.06,0.06,0,0,1,.11,0,10.71,10.71,0,0,1,1.5,2.18,0.47,0.47,0,0,0,.46.27,0.48,0.48,0,0,0,.42-0.32,8.11,8.11,0,0,1,2.29-3.4m-0.66-6.19h0a0.06,0.06,0,0,1,.11,0,12,12,0,0,1,0,3.26,8,8,0,0,1-.9,2.73,6.15,6.15,0,0,1-1.41,1.74h-0.08c-1.64-1.37-2.14-4.32-2.29-6a0.06,0.06,0,0,1,.1-0.05,10.72,10.72,0,0,1,1.65,2,0.48,0.48,0,0,0,.87-0.14,8.14,8.14,0,0,1,1.95-3.61m-1-5.89h0a0.06,0.06,0,0,1,.11,0,12,12,0,0,1,.15,3.26,8.07,8.07,0,0,1-.77,2.77,6.19,6.19,0,0,1-1.3,1.78l0,0,0,0a7.93,7.93,0,0,1-2.34-4.13,12.47,12.47,0,0,1-.3-1.73,0.06,0.06,0,0,1,0-.06,0.06,0.06,0,0,1,.07,0,10.88,10.88,0,0,1,1.8,1.95,0.48,0.48,0,0,0,.86-0.18,8.15,8.15,0,0,1,1.78-3.69m-31.76,32a0.72,0.72,0,0,0,.37.42,13.5,13.5,0,0,1,4.31,3.89,0,0,0,0,1,0,0,1.78,1.78,0,0,1-.29.46,1.8,1.8,0,0,1-1.43.58h-0.11a7.15,7.15,0,0,0-1.13-1.65,15.42,15.42,0,0,0-2.2-1.88,0.73,0.73,0,0,0-.84,1.2,13.9,13.9,0,0,1,1.94,1.64,5.47,5.47,0,0,1,.91,1.31,0,0,0,0,1,0,0,2.26,2.26,0,0,1-.42.6,1.42,1.42,0,0,1-1.26.38h0a9.24,9.24,0,0,0-1.54-2.35,0.73,0.73,0,0,0-1.09,1,7.9,7.9,0,0,1,1.21,1.79,0,0,0,0,1,0,0,2.59,2.59,0,0,1-.52.27,2.87,2.87,0,0,1-1.55.16l0,0a0,0,0,0,1,0,0,2.3,2.3,0,0,0,.43-1.09,2.13,2.13,0,0,0-.72-1.78,2.24,2.24,0,0,0-2-.5h0v0a2.11,2.11,0,0,0-.79-1.42,2.53,2.53,0,0,0-2.54-.53l-0.05,0h0a0,0,0,0,1,0,0A2.34,2.34,0,0,0,116,122a2.83,2.83,0,0,0-2.22-.14h0a3.28,3.28,0,0,0-1.82-.72,4.58,4.58,0,0,0-3.44,1.27h0c-4.86,2.61-11.13,5.44-13.6,6.54h0a48.88,48.88,0,0,1-3.39-8.08c-0.26-.8-0.5-1.63-0.72-2.45a0,0,0,0,1,0,0h0c7.11-.82,12.83-1.66,17-2.49,4.34-.87,7.13-1.75,8.53-2.7h0c1.68-1.19,2.83-1.76,4.44-1.63,0.51,0,1,.1,1.36.16a0,0,0,0,1,0,0,0,0,0,0,1,0,0,4.25,4.25,0,0,0-1.15.59c-0.66.46-1.07,0.8-1.43,1.09a11.6,11.6,0,0,1-1.12.84,12.61,12.61,0,0,1-1.17.63,3.59,3.59,0,0,0-2,1.47h0a2,2,0,0,0,.32,2c0.72,1,1.91.94,2.87,0.89a8.29,8.29,0,0,0,3.38-1c0.35-.2.66-0.41,0.93-0.59a4,4,0,0,1,1.08-.59h0a4.74,4.74,0,0,1,3,.31,16.92,16.92,0,0,1,3,1.63,19.83,19.83,0,0,1,4.37,4,0,0,0,0,1,0,0,1.51,1.51,0,0,1-.42.88,1.78,1.78,0,0,1-1.24.41h0a14.87,14.87,0,0,0-4.84-4.34,0.73,0.73,0,0,0-1,.34,0.72,0.72,0,0,0,0,.56m-5.52,7.53-0.05,0h0a4,4,0,0,1-2,.83,1.24,1.24,0,0,1-.26,0,1,1,0,0,1-.61-0.37,0,0,0,0,1,0,0,4.47,4.47,0,0,1,2-1.8,1.35,1.35,0,0,1,1.51-.21,0.68,0.68,0,0,1,.29.58,1.79,1.79,0,0,1-.78,1l0,0v0Zm-8.44-4.11c1-1,1.85-1.3,2.56-.95a1,1,0,0,1,.53.49,0.48,0.48,0,0,1,0,.25v0l-0.49.34a4.61,4.61,0,0,0-2,2.41,0,0,0,0,1,0,0h0a4.18,4.18,0,0,1-.49-0.12,1.1,1.1,0,0,1-1-1,2,2,0,0,1,.86-1.51m-1-1.06a4,4,0,0,0-1.24,1.86,0,0,0,0,1,0,0h0l-0.43-.05a1.35,1.35,0,0,1-1-.46,0.78,0.78,0,0,1,.19-0.86,3.14,3.14,0,0,1,2.47-1.12h0.06a2.46,2.46,0,0,1,.47.1l0,0a0,0,0,0,1,0,0c-0.17.14-.33,0.29-0.51,0.46m4.44,2.4c1.34-.94,2.05-1.27,2.73-0.67a0.67,0.67,0,0,1,.29.49,1.51,1.51,0,0,1-.6.85,4.74,4.74,0,0,0-1.74,2h0a5,5,0,0,1-.79.07,1.84,1.84,0,0,1-1-.23,0.71,0.71,0,0,1-.3-0.56c-0.08-.76.86-1.55,1.43-2m14.83-64.85a0.06,0.06,0,0,1,0-.06,0.06,0.06,0,0,1,0,0,7.59,7.59,0,0,1,1.84-.35A5.23,5.23,0,0,1,137.25,62a0.06,0.06,0,0,1,0,.06,0.06,0.06,0,0,1,0,0,5.71,5.71,0,0,1-1.63.31h-0.24a6.91,6.91,0,0,1-4.28-1.61m2,2.47h-23a25.22,25.22,0,0,1,23,0m2.9-4.72a12.61,12.61,0,0,1-2.25.66,9.13,9.13,0,0,1-1.65.16,5.38,5.38,0,0,1-3.17-.93,0.06,0.06,0,0,1,0-.05,0.06,0.06,0,0,1,0-.05,7,7,0,0,1,1.87-.74,6.72,6.72,0,0,1,2.69-.08,8,8,0,0,1,2.52.91,0.06,0.06,0,0,1,0,.06,0.06,0.06,0,0,1,0,.05m-5.52-1.94a10.09,10.09,0,0,1-3.08.81,0.48,0.48,0,0,0-.41.37,0.49,0.49,0,0,0,.19.51,10.48,10.48,0,0,1,2,1.88,0.06,0.06,0,0,1,0,.07,0.07,0.07,0,0,1-.06,0,8,8,0,0,1-6-2.73,0.06,0.06,0,0,1,0-.08,4.76,4.76,0,0,1,1.63-1,9.26,9.26,0,0,1,5.64,0,0.06,0.06,0,0,1,0,.05,0.06,0.06,0,0,1,0,.06m-6.31-1A8.87,8.87,0,0,1,121.28,57a0.48,0.48,0,0,0,0,.91,9,9,0,0,1,2.29,1.34,0.06,0.06,0,0,1,0,.07,0.06,0.06,0,0,1-.05,0c-0.42,0-.84.06-1.26,0.06a8.47,8.47,0,0,1-5.07-1.46,0.06,0.06,0,0,1,0-.08,4.78,4.78,0,0,1,1.39-1.3,9.3,9.3,0,0,1,5.59-1.11,0.07,0.07,0,0,1,.05,0,0.07,0.07,0,0,1,0,.07m-6.48.1a6.94,6.94,0,0,1-2.61,2,0.48,0.48,0,0,0,.12.9,10.77,10.77,0,0,1,2.53.85,0.06,0.06,0,0,1,0,.06,0.06,0.06,0,0,1,0,.05,12.5,12.5,0,0,1-1.68.43,10.14,10.14,0,0,1-1.75.16,7.12,7.12,0,0,1-3-.62,0.06,0.06,0,0,1,0-.08,4.7,4.7,0,0,1,1.07-1.57,9.34,9.34,0,0,1,5.34-2.29,0.06,0.06,0,0,1,.06.1m-6.07,1.07h0a8.26,8.26,0,0,1-2.29,2.93,0.48,0.48,0,0,0,.31.85h0a10.56,10.56,0,0,1,1.29.09,8.35,8.35,0,0,1,1.36.29,0.06,0.06,0,0,1,0,.05,0.06,0.06,0,0,1,0,.06,12.74,12.74,0,0,1-1.61.69,9.42,9.42,0,0,1-3.06.55,6.48,6.48,0,0,1-1.8-.24,0.06,0.06,0,0,1,0-.07c0.22-1.08,1.21-3.74,5.74-5.28a0.06,0.06,0,0,1,.06,0,0.06,0.06,0,0,1,0,.07m24.2,8.09a31.6,31.6,0,0,1,3.63,2.74H103.71a31.62,31.62,0,0,1,3.63-2.74h28.48Zm5.3,4.29q1.29,1.28,2.48,2.74H126.18A8.24,8.24,0,0,0,121,70.28a9.68,9.68,0,0,0-4.84,1.55H99.55q1.2-1.45,2.48-2.74h39.09ZM115.86,89.35a8.36,8.36,0,0,0-4.25.94h0a0,0,0,0,1,0,0c0-.13,0-0.27.07-0.4a21.07,21.07,0,0,1,3.59-8.47,13.73,13.73,0,0,1,2.12-2.32l0.37-.3a0.85,0.85,0,0,0-1-1.35s-0.17.12-.4,0.32a1.65,1.65,0,0,1-1.67.35,1.05,1.05,0,0,1-.39-1.16,6.2,6.2,0,0,1,1.53-2.48l0,0A7.65,7.65,0,0,1,121.05,72a6.47,6.47,0,0,1,2.35.33,6.77,6.77,0,0,1,4,3.51,37.75,37.75,0,0,1,2.94,7.68,0,0,0,0,1,0,0h0a12.07,12.07,0,0,1-3.36-1.86A0.85,0.85,0,1,0,125.81,83a13.06,13.06,0,0,0,4.92,2.45l0,0c0.2,1,.38,1.95.57,3.14a0,0,0,0,1,0,0h0a12.54,12.54,0,0,0-2.78-1,14.2,14.2,0,0,1-1.51-.45,15.69,15.69,0,0,1-3.38-2,0.85,0.85,0,0,0-1.06,1.34,17,17,0,0,0,3.8,2.21,15.13,15.13,0,0,0,1.7.52c2.3,0.61,3.41,1.12,3.45,2.33h0a1,1,0,0,1-.32.53,4,4,0,0,1-2.74.88H126a9.28,9.28,0,0,1-4.58-1.34,12.53,12.53,0,0,0-5.59-2.34M120.32,93l0,0h-6.86a1.82,1.82,0,0,1-1.5-.55,1.49,1.49,0,0,1-.21-0.35,0,0,0,0,1,0,0c3.09-1.42,4.54-1.68,8.57.89a0,0,0,0,1,0,0m2.29,6.15h31.44c0.08,1,.14,2,0.17,3H122.61v-3Zm0-1.56V94.85h30.92q0.22,1.37.37,2.75H122.61Zm9.86-4.31a3.25,3.25,0,0,0,.69-1.21,0.89,0.89,0,0,0,0-.16,4.13,4.13,0,0,0,.11-1.37h19.37c0.22,0.9.41,1.82,0.58,2.74h-20.8ZM133.1,89c-0.13-.87-0.28-1.78-0.46-2.74h18.8L151.67,87c0.22,0.68.42,1.36,0.61,2H133.1Zm-0.77-4.29c-0.19-.88-0.42-1.79-0.7-2.74h18.16q0.59,1.34,1.11,2.74H132.33Zm-1.19-4.29c-0.3-.88-0.65-1.8-1-2.73h17.53q0.76,1.33,1.44,2.73H131.14Zm-1.74-4.29c-0.17-.36-0.35-0.72-0.53-1.08a9.94,9.94,0,0,0-1.06-1.66h17q1,1.32,1.87,2.74H129.4Zm-15-2.74a8.38,8.38,0,0,0-1.75,2.74H96.47q0.89-1.41,1.87-2.74h16.1Zm-1.9,4.29a2.54,2.54,0,0,0,1.24,1.9,2.6,2.6,0,0,0,.48.21l0,0a0,0,0,0,1,0,0l-0.44.58H94.09q0.68-1.4,1.44-2.73h17ZM112.8,82a21.93,21.93,0,0,0-1.37,2.74H92.26q0.52-1.4,1.11-2.74H112.8Zm-2,4.29a25.5,25.5,0,0,0-.76,2.74H90.88c0.19-.69.39-1.37,0.61-2,0.07-.23.15-0.46,0.23-0.69h19.13Zm-1,4.29a5.88,5.88,0,0,0,0,1.12,0.81,0.81,0,0,0,0,.16,3.78,3.78,0,0,0,.54,1.46H89.89c0.17-.92.36-1.83,0.58-2.74h19.36Zm10.7,4.29V97.6H89.25q0.15-1.38.37-2.75h30.92Zm0,4.32v3H88.93c0-1,.09-2,0.17-3h31.44Zm0,4.56v6.36h-0.21A8.14,8.14,0,0,0,115.5,112c-2.51,1.69-10.94,3.36-25.07,5a0,0,0,0,1,0,0,56.64,56.64,0,0,1-1.49-13c0-.07,0-0.14,0-0.2h31.64Zm10.18,14c-1.54-1-4.4-2.88-7.15-2.13a4.79,4.79,0,0,0-1.56.8c-0.27.18-.54,0.36-0.86,0.54a6.75,6.75,0,0,1-2.73.83c-0.84,0-1.36.05-1.59-.28a0.55,0.55,0,0,1-.16-0.54h0a6.9,6.9,0,0,1,1.24-.7,13.34,13.34,0,0,0,1.33-.72,12.7,12.7,0,0,0,1.25-.93c0.35-.28.73-0.6,1.35-1a5.31,5.31,0,0,1,3.21-.66l0.68,0,0.52,0a12.79,12.79,0,0,1,4.91,1.16c0.59,0.22,1.26.46,2,.71h0s2.75,0.88,6.57,1.79a79.28,79.28,0,0,0,12.58,2.06h0a0,0,0,0,1,0,0c-0.21.77-.43,1.53-0.67,2.26a48.78,48.78,0,0,1-3.54,8.35l0,0h0a58.82,58.82,0,0,1-11.31-6,8.45,8.45,0,0,1-1.48-1.33h0l0,0h0l-0.12-.15a20.81,20.81,0,0,0-4.43-4m2.89-4.39-2-.7a13.89,13.89,0,0,0-5.47-1.24h-0.33a11.48,11.48,0,0,0-3.22-1.09,0,0,0,0,1,0,0v-6.59h31.64c0,0.07,0,.13,0,0.2a56.67,56.67,0,0,1-1.54,13.21l0,0h0c-8.58-.5-18.65-3.66-19.08-3.8m23-30.49a0.06,0.06,0,0,1,.06,0,0.06,0.06,0,0,1,0,0,12,12,0,0,1,.59,3.21,8,8,0,0,1-.38,2.85,6.16,6.16,0,0,1-1,1.94l0,0h0a7.58,7.58,0,0,1-2.94-3.81,11.31,11.31,0,0,1-.5-1.66,0.06,0.06,0,0,1,0-.06,0.06,0.06,0,0,1,.07,0,10.65,10.65,0,0,1,2.08,1.7,0.48,0.48,0,0,0,.83-0.29,8.11,8.11,0,0,1,1.25-3.9m-3.54-1.27a0.48,0.48,0,0,0,.27-0.45,8.08,8.08,0,0,1,.84-4,0.06,0.06,0,0,1,.06,0,0.06,0.06,0,0,1,.05,0,12,12,0,0,1,.92,3.13,8.08,8.08,0,0,1-.09,2.87,6.16,6.16,0,0,1-.84,2,0.06,0.06,0,0,1-.05,0h0a7.6,7.6,0,0,1-3.32-3.49,11.55,11.55,0,0,1-.67-1.6,0.06,0.06,0,0,1,0-.06,0.06,0.06,0,0,1,.07,0,10.83,10.83,0,0,1,2.24,1.48,0.48,0.48,0,0,0,.52.07h0m-2.53-5.25a0.48,0.48,0,0,0,.23-0.49,8.09,8.09,0,0,1,.37-4.07,0.06,0.06,0,0,1,.05,0h0a0.06,0.06,0,0,1,.05,0,12,12,0,0,1,1.29,3,8,8,0,0,1,.25,2.87,6.14,6.14,0,0,1-.6,2.11,0.06,0.06,0,0,1-.05,0h0a7.49,7.49,0,0,1-3.81-3.12,10,10,0,0,1-.83-1.57,0.06,0.06,0,0,1,0-.06,0.06,0.06,0,0,1,.06,0A8.15,8.15,0,0,1,150,76.31a0.48,0.48,0,0,0,.54,0m-3.76-4.87a0.48,0.48,0,0,0,.56,0,0.49,0.49,0,0,0,.17-0.53,9,9,0,0,1-.26-4,0.06,0.06,0,0,1,.11,0,12,12,0,0,1,1.71,2.72,8.07,8.07,0,0,1,.71,2.79,6,6,0,0,1-.25,2.18,0.06,0.06,0,0,1-.06,0h0a7.65,7.65,0,0,1-4.16-2.46,11.59,11.59,0,0,1-1.16-1.46,0.06,0.06,0,0,1,0-.07,0.06,0.06,0,0,1,.06,0,5.78,5.78,0,0,1,2.58.89M143,67.13a0.48,0.48,0,0,0,.6-0.67,8.11,8.11,0,0,1-.94-4,0.06,0.06,0,0,1,0-.05,0.06,0.06,0,0,1,.07,0,12,12,0,0,1,2.11,2.41,8.44,8.44,0,0,1,1.15,2.65,6.51,6.51,0,0,1,.14,2.24,0.06,0.06,0,0,1-.06.05h-0.09a7.36,7.36,0,0,1-4.27-1.71,13.33,13.33,0,0,1-1.46-1.32,0.06,0.06,0,0,1,0-.1,7.62,7.62,0,0,1,2.66.46m-1.49-3.94a6.74,6.74,0,0,1,.44,2.49,0.06,0.06,0,0,1-.06.06h-0.27c-2.09,0-4.53-1.42-5.8-2.26a0.06,0.06,0,0,1,0-.06,0.07,0.07,0,0,1,0,0,7,7,0,0,1,2.59,0,0.48,0.48,0,0,0,.49-0.77,10.45,10.45,0,0,1-1.61-3,0.06,0.06,0,0,1,0-.06,0.06,0.06,0,0,1,.06,0,6.27,6.27,0,0,1,4.12,3.67m-38.76-5.81h0a0,0,0,0,1,0,0,10.37,10.37,0,0,1,1.31-.57,28.53,28.53,0,0,1,3-.85,8,8,0,0,0,2.29-.9,0.18,0.18,0,0,0,.08-0.19,0.17,0.17,0,0,0-.15-0.14l-7-1a0,0,0,0,1,0,0,0,0,0,0,1,0,0l7-1a0.18,0.18,0,0,0,0-.35,11.64,11.64,0,0,1-2.69-.82c-0.4-.18-0.74-0.37-1.06-0.54a7.75,7.75,0,0,0-2.74-1,0,0,0,0,1,0,0,0,0,0,0,1,0,0,10.12,10.12,0,0,1,1.43,0,28.1,28.1,0,0,1,3.09.37,7.93,7.93,0,0,0,2.46,0,0.18,0.18,0,0,0,.14-0.14,0.18,0.18,0,0,0-.08-0.18l-6-3.61a0,0,0,0,1,0,0,0,0,0,0,1,0,0l6.83,1.72a0.18,0.18,0,0,0,.2-0.1,0.18,0.18,0,0,0-.07-0.22,11.49,11.49,0,0,1-2.17-1.79c-0.3-.32-0.54-0.62-0.77-0.91a7.77,7.77,0,0,0-2.14-2,0,0,0,0,1,0,0h0a10,10,0,0,1,1.33.53,28.18,28.18,0,0,1,2.71,1.53,7.78,7.78,0,0,0,2.25,1,0.17,0.17,0,0,0,.19-0.08,0.18,0.18,0,0,0,0-.2L107.95,40a0,0,0,0,1,0,0h0l5.66,4.2a0.17,0.17,0,0,0,.23,0,0.18,0.18,0,0,0,0-.23,11.55,11.55,0,0,1-1.32-2.49c-0.15-.41-0.26-0.78-0.37-1.14A7.84,7.84,0,0,0,111,37.62a0,0,0,0,1,0,0h0a10.54,10.54,0,0,1,1,1A28.58,28.58,0,0,1,114,41a7.9,7.9,0,0,0,1.7,1.78,0.17,0.17,0,0,0,.2,0,0.18,0.18,0,0,0,.07-0.19l-1.75-6.83a0,0,0,0,1,0,0h0l3.63,6.05a0.18,0.18,0,0,0,.32-0.13,11.77,11.77,0,0,1-.27-2.81c0-.43.06-0.82,0.09-1.19a7.81,7.81,0,0,0-.1-2.94,0,0,0,0,1,0,0,0,0,0,0,1,0,0,10.46,10.46,0,0,1,.56,1.32,29,29,0,0,1,.84,3,7.87,7.87,0,0,0,.89,2.3,0.17,0.17,0,0,0,.32-0.07l1-7a0,0,0,0,1,0,0l0,0,1,7a0.17,0.17,0,0,0,.17.15A0.18,0.18,0,0,0,123,41.3a11.69,11.69,0,0,1,.82-2.7c0.18-.4.36-0.74,0.54-1.06a7.85,7.85,0,0,0,1-2.75,0,0,0,0,1,0,0,0,0,0,0,1,0,0,10.11,10.11,0,0,1,0,1.43,28.31,28.31,0,0,1-.36,3.1,7.91,7.91,0,0,0,0,2.47,0.18,0.18,0,0,0,.14.14,0.17,0.17,0,0,0,.18-0.08l3.6-6.06h0a0,0,0,0,1,0,0l-1.71,6.84a0.18,0.18,0,0,0,.32.13,11.81,11.81,0,0,1,1.79-2.18c0.32-.3.62-0.54,0.9-0.78a7.76,7.76,0,0,0,2-2.15,0,0,0,0,1,0,0,0,0,0,0,1,0,0,10.15,10.15,0,0,1-.53,1.33,28.39,28.39,0,0,1-1.52,2.73,7.9,7.9,0,0,0-1,2.26,0.18,0.18,0,0,0,.08.19,0.17,0.17,0,0,0,.2,0L135.17,40h0a0,0,0,0,1,0,0L131,45.66a0.18,0.18,0,0,0,0,.23,0.17,0.17,0,0,0,.23,0,11.65,11.65,0,0,1,2.48-1.33c0.41-.15.77-0.26,1.13-0.37A7.71,7.71,0,0,0,137.54,43h0a0,0,0,0,1,0,0,10.17,10.17,0,0,1-1,1A28.28,28.28,0,0,1,134.13,46a7.87,7.87,0,0,0-1.77,1.71,0.18,0.18,0,0,0,0,.2,0.17,0.17,0,0,0,.19.07l6.8-1.74a0,0,0,0,1,0,0,0,0,0,0,1,0,0l-6,3.63a0.18,0.18,0,0,0-.07.22,0.17,0.17,0,0,0,.2.1,11.52,11.52,0,0,1,2.8-.27c0.44,0,.82.05,1.19,0.09a7.7,7.7,0,0,0,2.92-.11h0a0,0,0,0,1,0,0,9.94,9.94,0,0,1-1.31.56,27.43,27.43,0,0,1-3,.84,7.92,7.92,0,0,0-2.29.9,0.18,0.18,0,0,0-.08.19,0.18,0.18,0,0,0,.15.14l6.95,1a0,0,0,0,1,0,0,0,0,0,0,1,0,0l-7,1a0.17,0.17,0,0,0-.15.17,0.18,0.18,0,0,0,.15.18,11.59,11.59,0,0,1,2.69.83c0.4,0.18.73,0.37,1.06,0.54a7.71,7.71,0,0,0,2.74,1,0,0,0,0,1,0,0,0,0,0,0,1,0,0c-0.27,0-.54,0-0.82,0l-0.61,0a28.48,28.48,0,0,1-3.08-.37l-0.18,0h0a8.25,8.25,0,0,0-3.33-.72h-0.07v0a0.49,0.49,0,0,0,0-.14,0.51,0.51,0,0,0-.33-0.37,15,15,0,0,0-3.66-.82h-0.89a8.79,8.79,0,0,0-1.52.13h0v0a0.52,0.52,0,0,0,0-.21l0,0a0.52,0.52,0,0,0-.39-0.28l-0.33,0h-0.11l-0.22,0h-0.13l-0.19,0a13.22,13.22,0,0,0-3.58.17c-0.3.06-.59,0.13-0.87,0.21l-0.06,0-0.14,0-0.06,0L119.5,55h0l-0.4.16h0a0,0,0,0,1,0,0h0v0h0a0.51,0.51,0,0,0-.13-0.43h0l0,0h0a0.52,0.52,0,0,0-.37-0.12,14.06,14.06,0,0,0-4.44,1,9.28,9.28,0,0,0-1.18.62h0a0,0,0,0,1,0,0,1.33,1.33,0,0,0,0-.15h0a0.51,0.51,0,0,0-.19-0.43h0l0,0h0l0,0h0a0.51,0.51,0,0,0-.35,0A13.8,13.8,0,0,0,108,57.27l-0.07,0,0,0h0c-0.34,0-.67,0-1,0s-1.12-.08-1.19-0.09a7.79,7.79,0,0,0-2.92.11m2.65,1.38h0a0.07,0.07,0,0,1,.07,0,0.06,0.06,0,0,1,0,.06,8.08,8.08,0,0,1-1.32,3.87,0.49,0.49,0,0,0,0,.53,0.48,0.48,0,0,0,.49.2,10.71,10.71,0,0,1,2.61-.16,0.06,0.06,0,0,1,0,.11,9.9,9.9,0,0,1-5.71,2.38h-0.25a0.06,0.06,0,0,1-.06-0.06c-0.06-1.15.21-4.11,4.11-6.93M97.2,67.54a8.14,8.14,0,0,1,1.14-2.64,12.11,12.11,0,0,1,2.18-2.46,0.06,0.06,0,0,1,.06,0,0.06,0.06,0,0,1,0,.05,8.1,8.1,0,0,1-.94,4,0.48,0.48,0,0,0,.58.68,10,10,0,0,1,2.54-.46,0.07,0.07,0,0,1,.06,0,0.06,0.06,0,0,1,0,.07,16.57,16.57,0,0,1-1.5,1.32,7.25,7.25,0,0,1-4,1.73H97.17a0.06,0.06,0,0,1-.06-0.05,6,6,0,0,1,.09-2.23m-1.32-.71h0a0.06,0.06,0,0,1,.06,0,0.06,0.06,0,0,1,0,0,8.06,8.06,0,0,1-.3,4.08,0.48,0.48,0,0,0,.17.54,0.47,0.47,0,0,0,.56,0A5.86,5.86,0,0,1,99,70.6a0.06,0.06,0,0,1,.06,0,0.07,0.07,0,0,1,0,.07c-0.92,1.29-2.82,3.51-5.28,3.92h0a0.06,0.06,0,0,1-.06,0c-0.36-1.09-.86-4,2.21-7.75M90.6,74.78a12.08,12.08,0,0,1,1.41-3,0.06,0.06,0,0,1,.06,0,0.07,0.07,0,0,1,.05,0,8.06,8.06,0,0,1,.2,4.09,0.48,0.48,0,0,0,.24.52,0.47,0.47,0,0,0,.56-0.08,4.91,4.91,0,0,1,2.48-1.22,0.07,0.07,0,0,1,.06,0,0.06,0.06,0,0,1,0,.06,11.07,11.07,0,0,1-1,1.66,7.36,7.36,0,0,1-3.86,2.91h0a0.06,0.06,0,0,1-.06,0,6.13,6.13,0,0,1-.51-2.15,8,8,0,0,1,.37-2.85m-2.85,5.48a12.1,12.1,0,0,1,1-3.13,0.06,0.06,0,0,1,.06,0,0.06,0.06,0,0,1,.06,0,8.06,8.06,0,0,1,.81,4,0.48,0.48,0,0,0,.27.46,0.48,0.48,0,0,0,.52-0.07A10.6,10.6,0,0,1,92.79,80a0.06,0.06,0,0,1,.06,0,0.06,0.06,0,0,1,0,.06,7.67,7.67,0,0,1-.55,1.49,7.78,7.78,0,0,1-3.62,3.6h0a0.06,0.06,0,0,1-.05,0,6.1,6.1,0,0,1-.82-2,8.05,8.05,0,0,1-.06-2.87m-1.54,2.57a0.06,0.06,0,0,1,.11,0,8.09,8.09,0,0,1,1.31,3.88,0.48,0.48,0,0,0,.85.27,9,9,0,0,1,2.17-1.8,0.06,0.06,0,0,1,.06,0,0.06,0.06,0,0,1,0,.06,8,8,0,0,1-.35,1.6,7.31,7.31,0,0,1-3.14,4h0l0,0a6.17,6.17,0,0,1-1.08-1.93A8,8,0,0,1,85.66,86a11.91,11.91,0,0,1,.55-3.22m-1.75,6h0a0.06,0.06,0,0,1,0,0,0.06,0.06,0,0,1,.06,0,8.13,8.13,0,0,1,1.78,3.69,0.49,0.49,0,0,0,.37.38,0.48,0.48,0,0,0,.49-0.2,10.41,10.41,0,0,1,1.88-2,0.06,0.06,0,0,1,.1,0A9.38,9.38,0,0,1,89,92.25a8.07,8.07,0,0,1-2.51,4.33l0,0,0,0a6.14,6.14,0,0,1-1.29-1.77A8.08,8.08,0,0,1,84.31,92a12,12,0,0,1,.15-3.26m-0.89,6a0.06,0.06,0,0,1,0,0,0.06,0.06,0,0,1,.06,0,8.14,8.14,0,0,1,1.95,3.61,0.48,0.48,0,0,0,.9.09,7.56,7.56,0,0,1,1.58-2.09,0.06,0.06,0,0,1,.07,0,0.06,0.06,0,0,1,0,.05,11.28,11.28,0,0,1-.15,1.8,7.31,7.31,0,0,1-2.11,4.3H85.86a6.2,6.2,0,0,1-1.39-1.72,8.05,8.05,0,0,1-.9-2.73,12,12,0,0,1,0-3.26M83.08,101h0a0.06,0.06,0,0,1,.1,0l0.38,0.38a8.35,8.35,0,0,1,1.79,3.1,0.48,0.48,0,0,0,.46.33h0a0.48,0.48,0,0,0,.44-0.4,4.45,4.45,0,0,1,1.3-2.27,0.06,0.06,0,0,1,.06,0,0.06,0.06,0,0,1,0,0,9.38,9.38,0,0,1,0,3,6.08,6.08,0,0,1-1.75,3.45l0,0h0c-0.94-.68-3.08-2.77-2.79-7.57m-0.23,6.06a0.08,0.08,0,0,1,.07,0l0.42,0.34a8.31,8.31,0,0,1,2.11,2.9,0.48,0.48,0,0,0,.44.29v0a0.48,0.48,0,0,0,.44-0.3,10.52,10.52,0,0,1,1.45-2.41,0.07,0.07,0,0,1,.06,0,0.06,0.06,0,0,1,0,0,7.88,7.88,0,0,1-1.44,6.41,0.07,0.07,0,0,1-.05,0h0c-1-.58-3.33-2.45-3.54-7.22a0.07,0.07,0,0,1,0-.06m0.3,6.36h0a0.06,0.06,0,0,1,0-.06,0.05,0.05,0,0,1,.06,0,8.15,8.15,0,0,1,3.05,2.75,0.48,0.48,0,0,0,.49.2,0.47,0.47,0,0,0,.38-0.37h0a10.36,10.36,0,0,1,1-2.66,0.06,0.06,0,0,1,.05,0h0a0.06,0.06,0,0,1,.05,0,7.37,7.37,0,0,1,.55,1.62,6.83,6.83,0,0,1-.85,5,0.06,0.06,0,0,1-.05,0h0A6.19,6.19,0,0,1,86,118.8a8.09,8.09,0,0,1-1.77-2.28,12,12,0,0,1-1.1-3.07m1.43,5.88h0a0.06,0.06,0,0,1,0-.06,0.06,0.06,0,0,1,.07,0l0.48,0.23a8.37,8.37,0,0,1,2.76,2.3,0.49,0.49,0,0,0,.5.17,0.47,0.47,0,0,0,.35-0.4,10.63,10.63,0,0,1,.78-2.63,0.06,0.06,0,0,1,.06,0,0.06,0.06,0,0,1,.06,0,8,8,0,0,1,.24,6.51,0.06,0.06,0,0,1-.06,0h0c-1.11-.32-3.85-1.55-5.24-6.14M88.11,128a12,12,0,0,1-1.66-2.8,0.06,0.06,0,0,1,0-.07,0.07,0.07,0,0,1,.06,0L87,125.33a8.36,8.36,0,0,1,3,2,0.48,0.48,0,0,0,.82-0.33,10.61,10.61,0,0,1,.46-2.66,0.07,0.07,0,0,1,.05,0,0.06,0.06,0,0,1,.06,0,10.45,10.45,0,0,1,.73,1.56,7.49,7.49,0,0,1,.27,4.84,0.06,0.06,0,0,1-.06,0h0a6.16,6.16,0,0,1-2.07-.79A8.15,8.15,0,0,1,88.11,128M89,130.84a0.06,0.06,0,0,1,0-.07,0.06,0.06,0,0,1,.06,0,8.25,8.25,0,0,1,3.74,1.72,0.48,0.48,0,0,0,.77-0.43,9.32,9.32,0,0,1,.13-2.64,0.06,0.06,0,0,1,.11,0,12,12,0,0,1,.89,1.52,7.9,7.9,0,0,1,.86,4.68,0.06,0.06,0,0,1-.06,0,6.22,6.22,0,0,1-2.15-.54,8.16,8.16,0,0,1-2.38-1.64,12.07,12.07,0,0,1-2-2.6m5.37,7.63a12.25,12.25,0,0,1-2.24-2.37,0.07,0.07,0,0,1,0-.07,0.06,0.06,0,0,1,.06,0,8.26,8.26,0,0,1,3.9,1.32,0.48,0.48,0,0,0,.72-0.52,8.44,8.44,0,0,1-.16-2.62,0.07,0.07,0,0,1,0-.05,0.06,0.06,0,0,1,.06,0c1,1.17,2.56,3.5,2.42,6a0.06,0.06,0,0,1-.06.06H98.83a6.43,6.43,0,0,1-2-.32,8.21,8.21,0,0,1-2.54-1.39m8.71,5.77a4.69,4.69,0,0,1-.8.06,6.26,6.26,0,0,1-1.21-.12,11,11,0,0,1-5.19-3,0.06,0.06,0,0,1,0-.06,0.07,0.07,0,0,1,.05,0,8.23,8.23,0,0,1,4.09.55,0.47,0.47,0,0,0,.52-0.11,0.48,0.48,0,0,0,.1-0.52,9.85,9.85,0,0,1-.62-2.58,0.06,0.06,0,0,1,0-.06,0.06,0.06,0,0,1,.07,0c1.18,1,3.15,3.07,3,5.81a0.06,0.06,0,0,1-.05.06m11.54,5.05a32,32,0,0,1-4-1.39,34.7,34.7,0,0,1-6.48-3.63v0a6.66,6.66,0,0,0-.35-2.44,0,0,0,0,1,0,0h0a31.08,31.08,0,0,0,4.51,3.21,28.25,28.25,0,0,0,5.53,2.37h0l0.47,0.14a3,3,0,0,0,.48,1.86Zm3.16-1.49a2.54,2.54,0,0,0,.14,2,0.09,0.09,0,0,1,0,.09l-0.06,0h0a4,4,0,0,1-1.85-1.13,1.78,1.78,0,0,1-.4-1.4,1.13,1.13,0,0,1,.52-0.89,4.51,4.51,0,0,1,2.74-.34,0.08,0.08,0,0,1,.07.06,0.08,0.08,0,0,1,0,.08,3.15,3.15,0,0,0-1.1,1.46m3.84,6.09a1.66,1.66,0,1,1,1.65-1.66,1.66,1.66,0,0,1-1.65,1.66m2-3.84a0.08,0.08,0,0,1-.11,0,2.87,2.87,0,0,0-3.85,0l-0.05,0-0.06,0a1.88,1.88,0,0,1-.62-1.83c0.55-1.48,2.59-1.49,2.65-1.49h0a4.21,4.21,0,0,1,1.15.19,2.19,2.19,0,0,1,1.5,1.3,1.89,1.89,0,0,1-.62,1.81m3.59-1.23a4,4,0,0,1-1.85,1.14h0l-0.06,0a0.08,0.08,0,0,1,0-.09,2.56,2.56,0,0,0,.14-2,3.15,3.15,0,0,0-1.1-1.46,0.08,0.08,0,0,1,0-.08,0.07,0.07,0,0,1,.07-0.06,4.76,4.76,0,0,1,2.74.34,1.13,1.13,0,0,1,.52.89,1.79,1.79,0,0,1-.4,1.39m11.88-4.58a0,0,0,0,1,0,0,28,28,0,0,1-4.8,2.95,30.72,30.72,0,0,1-5.57,2.1l-0.37.08a3,3,0,0,0,.52-1.9l0.55-.17h0a28.12,28.12,0,0,0,5.45-2.34,31.78,31.78,0,0,0,4.56-3.25h0a0,0,0,0,1,0,0,6.57,6.57,0,0,0-.37,2.48m-4.86-.25a27.18,27.18,0,0,1-5.49,2.33l-0.18.05a2.36,2.36,0,0,0-.81-0.88c-1.78-1.17-5.17-.32-6.17,0h0c-1-.29-4.39-1.13-6.17,0a2.32,2.32,0,0,0-.81.88l-0.29-.09a27.26,27.26,0,0,1-5.37-2.3,33.83,33.83,0,0,1-10.39-9.28,43.12,43.12,0,0,1-2.91-4.41,0,0,0,0,1,0,0l0,0c2.07-.92,7.37-3.31,11.95-5.68h0v0a2.2,2.2,0,0,0,.16.58,2.62,2.62,0,0,0,2.13,1.33,6.57,6.57,0,0,0,.73.07h0a2.76,2.76,0,0,0,1.84,1.55,5.16,5.16,0,0,0,1,.21h0a2.1,2.1,0,0,0,.78,1,4.09,4.09,0,0,0,2.81.4h0a2.5,2.5,0,0,0,1.48.91,3.52,3.52,0,0,0,1.91-.21h0v8.07a1,1,0,1,0,2.07,0v-8.43h0a4.43,4.43,0,0,0,2.52-.2,4.26,4.26,0,0,0,1.09-.63h0a2.87,2.87,0,0,0,2.66-.81,3.48,3.48,0,0,0,.56-0.75h0.24a3.21,3.21,0,0,0,2.53-1.08,3.33,3.33,0,0,0,.52-0.83h0a3.09,3.09,0,0,0,2.11-.82,2.76,2.76,0,0,0,.57-0.81l0,0h0c3.69,2.86,9.51,5.42,11.85,6.39h0a0,0,0,0,1,0,0,42.5,42.5,0,0,1-2.75,4.14A33.84,33.84,0,0,1,134.24,144m13.09-2.79h0a10.9,10.9,0,0,1-5.19,3,6.32,6.32,0,0,1-1.21.13,4.61,4.61,0,0,1-.79-0.07,0.06,0.06,0,0,1-.05-0.06,6.42,6.42,0,0,1,1.75-4.51,10.43,10.43,0,0,1,1.3-1.27,0.06,0.06,0,0,1,.07,0,0.06,0.06,0,0,1,0,.06,10.79,10.79,0,0,1-.65,2.54,0.48,0.48,0,0,0,.1.52,0.47,0.47,0,0,0,.52.11,8.26,8.26,0,0,1,4.08-.55,0.06,0.06,0,0,1,.05,0,0.06,0.06,0,0,1,0,.06m3.82-5.1a12.17,12.17,0,0,1-2.24,2.37,8.23,8.23,0,0,1-2.54,1.39,6.44,6.44,0,0,1-2,.32h-0.24a0.06,0.06,0,0,1-.06-0.06,7.55,7.55,0,0,1,1.34-4.6,11.68,11.68,0,0,1,1.05-1.4,0.06,0.06,0,0,1,.07,0,0.06,0.06,0,0,1,0,.05,10.43,10.43,0,0,1-.14,2.66,0.48,0.48,0,0,0,.73.5,8.25,8.25,0,0,1,3.9-1.32,0.05,0.05,0,0,1,.06,0,0.06,0.06,0,0,1,0,.07m3.13-5.25a12.11,12.11,0,0,1-2,2.59,8.16,8.16,0,0,1-2.38,1.64,6.27,6.27,0,0,1-2.15.54,0.06,0.06,0,0,1-.06,0,7.56,7.56,0,0,1,.85-4.72,11.64,11.64,0,0,1,.9-1.5,0.06,0.06,0,0,1,.06,0,0.06,0.06,0,0,1,0,0,10.74,10.74,0,0,1,.14,2.66,0.48,0.48,0,0,0,.77.43,8.22,8.22,0,0,1,3.74-1.72,0.06,0.06,0,0,1,.06,0,0.07,0.07,0,0,1,0,.07m2.52-5.76h0a12,12,0,0,1-1.7,2.89,8.22,8.22,0,0,1-2.17,1.91,6.17,6.17,0,0,1-2.07.79h0a0.06,0.06,0,0,1-.06,0,7.67,7.67,0,0,1,.28-4.85,10.71,10.71,0,0,1,.7-1.52,0.07,0.07,0,0,1,.06,0,0.06,0.06,0,0,1,.05,0,11.86,11.86,0,0,1,.47,2.64,0.48,0.48,0,0,0,.83.31h0a7.33,7.33,0,0,1,3-2,4.63,4.63,0,0,1,.54-0.16,0.06,0.06,0,0,1,.06,0,0.06,0.06,0,0,1,0,.07m1.82-5.78h0a12.07,12.07,0,0,1-1.38,3,8.13,8.13,0,0,1-2,2.11,6.3,6.3,0,0,1-2,1h0a0.06,0.06,0,0,1-.06,0,8.08,8.08,0,0,1-.21-4.88,12.23,12.23,0,0,1,.54-1.7,0.06,0.06,0,0,1,.06,0,0.06,0.06,0,0,1,.06,0,11.81,11.81,0,0,1,.74,2.71,0.48,0.48,0,0,0,.85.24,8.2,8.2,0,0,1,3.28-2.47,0.06,0.06,0,0,1,.06,0,0.07,0.07,0,0,1,0,.07m0.19-3a8.13,8.13,0,0,1-1.69,2.33,6.13,6.13,0,0,1-1.84,1.22h0a0.07,0.07,0,0,1-.05,0,7.94,7.94,0,0,1-.83-4.91,11.06,11.06,0,0,1,.35-1.72,0.06,0.06,0,0,1,.05,0,0.07,0.07,0,0,1,.06,0,11.69,11.69,0,0,1,1.06,2.66,0.48,0.48,0,0,0,.39.36,0.49,0.49,0,0,0,.48-0.22,8.21,8.21,0,0,1,3-2.86,0.07,0.07,0,0,1,.07,0,0.07,0.07,0,0,1,0,.06,12,12,0,0,1-1,3.1" transform="translate(-81.65 -31.95)"/></svg>