<svg id="Layer_1" data-name="Layer 1" xmlns="http://www.w3.org/2000/svg" viewBox="0 0 229.77 58.18"><defs><style>.cls-1{fill:#434041;}.cls-2{fill:#29c3ec;}.cls-3{fill:#0094b2;}.cls-4{fill:#49c0b6;}</style></defs><title>logo</title><rect class="cls-1" x="69.83" y="11.56" width="6.82" height="34.97"/><path class="cls-1" d="M360.67,4313.88c-10.66,0-17.3-8.17-17.3-18.46s6.86-18.36,17.3-18.36,17.3,8,17.3,18.36-6.64,18.46-17.3,18.46m0-30.11c-6.45,0-10.25,5.71-10.25,11.36,0,5.38,2.7,12,10.25,12s10.25-6.64,10.25-12c0-5.65-3.8-11.36-10.25-11.36" transform="translate(-254.16 -4266.41)"/><path class="cls-1" d="M407,4285.67a6.29,6.29,0,0,0-5.24-2.88,4.17,4.17,0,0,0-4.27,3.94c0,5.89,13.87,3.43,13.87,15.17,0,7-4.36,12-11.51,12-4.82,0-8.34-2.79-10.75-6.82l4.41-4.31c0.92,2.69,3.39,5.1,6.31,5.1s4.5-2.36,4.5-5.06c0-3.62-3.34-4.64-6.08-5.7-4.5-1.86-7.8-4.12-7.8-9.56A10.18,10.18,0,0,1,400.71,4277c3.09,0,7.42,1.53,9.55,3.89Z" transform="translate(-254.16 -4266.41)"/><polygon class="cls-1" points="178.78 17.5 178.78 25.21 188.66 25.21 188.66 31.14 178.78 31.14 178.78 46.54 171.96 46.54 171.96 11.56 189.3 11.56 189.3 17.5 178.78 17.5"/><path class="cls-1" d="M461.81,4305.57l-2.88,7.38h-7.19L465.38,4277h5.29l13.25,35.89h-7.27l-2.7-7.38H461.81Zm5.89-18.27h-0.09L463.76,4300h8.3Z" transform="translate(-254.16 -4266.41)"/><path class="cls-2" d="M302.83,4282.82a20.5,20.5,0,0,0-40.34.87,20.5,20.5,0,0,1,34.9,17.57,20.51,20.51,0,0,0,5.44-18.44" transform="translate(-254.16 -4266.41)"/><path class="cls-3" d="M277,4310.69a20.3,20.3,0,0,1-5.79-4.45A20.5,20.5,0,1,0,306.79,4290,20.49,20.49,0,0,1,277,4310.69" transform="translate(-254.16 -4266.41)"/><path class="cls-4" d="M277,4288.15a20.45,20.45,0,0,1,6.91-2.36,20.5,20.5,0,1,0-6.23,38.57,20.5,20.5,0,0,1-.68-36.22" transform="translate(-254.16 -4266.41)"/></svg>