<svg id="Layer_1" data-name="Layer 1" xmlns="http://www.w3.org/2000/svg" viewBox="0 0 216.15 65.58"><defs><style>.cls-1{fill:#fff;}</style></defs><title>logo-blanco</title><path class="cls-1" d="M306.4,6860.59a21.89,21.89,0,0,0-43.06.93,21.89,21.89,0,0,1,37.25,18.75,21.87,21.87,0,0,0,5.81-19.67" transform="translate(-254.46 -6842.24)"/><path class="cls-1" d="M278.88,6890.34a21.74,21.74,0,0,1-6.18-4.75,21.88,21.88,0,1,0,37.94-17.3,21.88,21.88,0,0,1-31.75,22.05" transform="translate(-254.46 -6842.24)"/><path class="cls-1" d="M278.85,6866.27a21.74,21.74,0,0,1,7.38-2.52,21.89,21.89,0,1,0-6.66,41.17,21.88,21.88,0,0,1-.72-38.66" transform="translate(-254.46 -6842.24)"/><rect class="cls-1" x="74.58" y="0.82" width="6.02" height="30.89"/><path class="cls-1" d="M361.44,6874.77c-9.42,0-15.28-7.21-15.28-16.31s6.07-16.22,15.28-16.22,15.28,7,15.28,16.22-5.86,16.31-15.28,16.31m0-26.59c-5.69,0-9.05,5-9.05,10,0,4.75,2.38,10.62,9.05,10.62s9-5.86,9-10.62c0-5-3.36-10-9-10" transform="translate(-254.46 -6842.24)"/><path class="cls-1" d="M402.41,6849.86a5.57,5.57,0,0,0-4.63-2.54,3.68,3.68,0,0,0-3.77,3.48c0,5.2,12.25,3,12.25,13.4,0,6.18-3.85,10.57-10.16,10.57-4.26,0-7.37-2.46-9.5-6l3.89-3.81c0.82,2.38,3,4.51,5.57,4.51s4-2.09,4-4.47c0-3.19-2.95-4.1-5.36-5-4-1.64-6.88-3.64-6.88-8.44a9,9,0,0,1,9-9.26c2.74,0,6.55,1.35,8.44,3.44Z" transform="translate(-254.46 -6842.24)"/><polygon class="cls-1" points="170.81 6.06 170.81 12.87 179.54 12.87 179.54 18.11 170.81 18.11 170.81 31.71 164.78 31.71 164.78 0.82 180.11 0.82 180.11 6.06 170.81 6.06"/><path class="cls-1" d="M451.07,6867.44l-2.54,6.51h-6.35l12-31.71h4.67l11.71,31.71h-6.43l-2.38-6.51H451.07Zm5.21-16.14h-0.08l-3.4,11.23h7.33Z" transform="translate(-254.46 -6842.24)"/><path class="cls-1" d="M330.26,6884.41v7.54h-1v-7.54h1Z" transform="translate(-254.46 -6842.24)"/><path class="cls-1" d="M332.15,6888c0-.57,0-1,0-1.46H333l0.05,0.89h0a2,2,0,0,1,1.79-1c0.75,0,1.91.45,1.91,2.3v3.22h-1v-3.12c0-.88-0.32-1.6-1.25-1.6a1.42,1.42,0,0,0-1.32,1,1.47,1.47,0,0,0-.07.46v3.26h-1V6888Z" transform="translate(-254.46 -6842.24)"/><path class="cls-1" d="M338.35,6890.95a2.79,2.79,0,0,0,1.31.38,0.86,0.86,0,0,0,1-.8,1.1,1.1,0,0,0-1-1,1.75,1.75,0,0,1-1.44-1.53,1.68,1.68,0,0,1,1.87-1.59,2.52,2.52,0,0,1,1.32.34l-0.23.71a2.12,2.12,0,0,0-1.11-.32,0.78,0.78,0,0,0-.89.74c0,0.44.31,0.65,1,.93a1.73,1.73,0,0,1,1.42,1.62c0,1-.75,1.63-2,1.63a3.07,3.07,0,0,1-1.52-.38Z" transform="translate(-254.46 -6842.24)"/><path class="cls-1" d="M344.22,6885.23v1.3h1.41v0.75h-1.41v2.92c0,0.67.19,1.05,0.74,1.05a1.86,1.86,0,0,0,.57-0.07l0,0.75a2.75,2.75,0,0,1-.87.13,1.41,1.41,0,0,1-1.06-.41,2.13,2.13,0,0,1-.38-1.42v-3h-0.84v-0.75h0.84v-1Z" transform="translate(-254.46 -6842.24)"/><path class="cls-1" d="M348,6885a0.59,0.59,0,0,1-.63.6,0.58,0.58,0,0,1-.59-0.6,0.6,0.6,0,0,1,.62-0.61A0.59,0.59,0,0,1,348,6885Zm-1.1,6.93v-5.41h1v5.41h-1Z" transform="translate(-254.46 -6842.24)"/><path class="cls-1" d="M350.78,6885.23v1.3h1.41v0.75h-1.41v2.92c0,0.67.19,1.05,0.74,1.05a1.88,1.88,0,0,0,.57-0.07l0,0.75a2.78,2.78,0,0,1-.87.13,1.39,1.39,0,0,1-1.06-.41,2.11,2.11,0,0,1-.38-1.42v-3H349v-0.75h0.84v-1Z" transform="translate(-254.46 -6842.24)"/><path class="cls-1" d="M358,6890.45c0,0.57,0,1.06,0,1.49h-0.87l-0.06-.88h0a2,2,0,0,1-1.79,1c-0.85,0-1.87-.48-1.87-2.37v-3.16h1v3c0,1,.32,1.73,1.21,1.73a1.41,1.41,0,0,0,1.29-.91,1.34,1.34,0,0,0,.09-0.5v-3.31h1v3.92Z" transform="translate(-254.46 -6842.24)"/><path class="cls-1" d="M360.89,6885.23v1.3h1.41v0.75h-1.41v2.92c0,0.67.19,1.05,0.74,1.05a1.87,1.87,0,0,0,.57-0.07l0,0.75a2.69,2.69,0,0,1-.87.13,1.39,1.39,0,0,1-1.06-.41,2.11,2.11,0,0,1-.38-1.42v-3h-0.84v-0.75h0.84v-1Z" transform="translate(-254.46 -6842.24)"/><path class="cls-1" d="M368.36,6889.19a2.65,2.65,0,0,1-2.7,2.88,2.58,2.58,0,0,1-2.59-2.78,2.65,2.65,0,0,1,2.68-2.86A2.56,2.56,0,0,1,368.36,6889.19Zm-4.28.06a1.84,1.84,0,0,0,1.64,2.08,1.86,1.86,0,0,0,1.64-2.1A1.69,1.69,0,1,0,364.07,6889.24Z" transform="translate(-254.46 -6842.24)"/><path class="cls-1" d="M376.88,6884v6.54c0,0.48,0,1,0,1.4h-0.87l0-.94h0a2,2,0,0,1-1.82,1.06,2.47,2.47,0,0,1-2.33-2.75,2.59,2.59,0,0,1,2.43-2.9,1.82,1.82,0,0,1,1.63.82h0V6884h1Zm-1,4.73a1.66,1.66,0,0,0,0-.42,1.44,1.44,0,0,0-1.42-1.13c-1,0-1.62.9-1.62,2.08a1.73,1.73,0,0,0,1.6,2,1.49,1.49,0,0,0,1.44-1.17,1.63,1.63,0,0,0,0-.43v-0.94Z" transform="translate(-254.46 -6842.24)"/><path class="cls-1" d="M379.19,6889.41a1.73,1.73,0,0,0,1.86,1.88,3.51,3.51,0,0,0,1.5-.28l0.18,0.71a4.39,4.39,0,0,1-1.81.35,2.52,2.52,0,0,1-2.66-2.74,2.62,2.62,0,0,1,2.54-2.91A2.28,2.28,0,0,1,383,6889a2.34,2.34,0,0,1,0,.46h-3.8Zm2.89-.7a1.4,1.4,0,0,0-1.37-1.59,1.61,1.61,0,0,0-1.51,1.59h2.87Z" transform="translate(-254.46 -6842.24)"/><path class="cls-1" d="M393.34,6888.09c0,2.58-1.58,4-3.5,4s-3.39-1.56-3.39-3.84,1.48-4,3.49-4S393.34,6885.85,393.34,6888.09Zm-5.86.11c0,1.62.87,3.06,2.42,3.06s2.41-1.42,2.41-3.13c0-1.51-.78-3.07-2.4-3.07S387.48,6886.56,387.48,6888.21Z" transform="translate(-254.46 -6842.24)"/><path class="cls-1" d="M394.69,6884h1v3.4h0a2,2,0,0,1,1.85-1c1.35,0,2.29,1.12,2.29,2.75,0,1.93-1.23,2.9-2.44,2.9a2,2,0,0,1-1.82-1h0l-0.05.88h-0.84c0-.37,0-0.92,0-1.4V6884Zm1,5.77a1.26,1.26,0,0,0,0,.36,1.51,1.51,0,0,0,1.47,1.15c1,0,1.64-.84,1.64-2.08a1.76,1.76,0,0,0-1.62-2,1.58,1.58,0,0,0-1.49,1.21,1.66,1.66,0,0,0-.05.41v1Z" transform="translate(-254.46 -6842.24)"/><path class="cls-1" d="M401.17,6888.21c0-.64,0-1.18,0-1.68H402l0,1.07h0a1.64,1.64,0,0,1,1.51-1.19l0.27,0v0.93a1.48,1.48,0,0,0-.33,0,1.37,1.37,0,0,0-1.32,1.26,3.13,3.13,0,0,0,0,.45v2.89h-1v-3.73Z" transform="translate(-254.46 -6842.24)"/><path class="cls-1" d="M408.7,6890.64a8.66,8.66,0,0,0,.08,1.3h-0.88l-0.08-.68h0a2,2,0,0,1-1.66.81,1.54,1.54,0,0,1-1.65-1.56c0-1.31,1.16-2,3.26-2v-0.11a1.11,1.11,0,0,0-1.23-1.24,2.58,2.58,0,0,0-1.42.4l-0.23-.66a3.48,3.48,0,0,1,1.79-.47,1.92,1.92,0,0,1,2.06,2.2v2Zm-1-1.46c-1.07,0-2.29.17-2.29,1.22a0.86,0.86,0,0,0,.92.94,1.37,1.37,0,0,0,1.33-.91,1.05,1.05,0,0,0,0-.31v-0.94Z" transform="translate(-254.46 -6842.24)"/><path class="cls-1" d="M412.81,6890.76a3.28,3.28,0,0,0,1.73.49,1.35,1.35,0,0,0,1.57-1.28c0-.69-0.4-1.11-1.42-1.49-1.23-.45-2-1.1-2-2.15a2.17,2.17,0,0,1,2.44-2,3.37,3.37,0,0,1,1.66.37l-0.27.79a2.77,2.77,0,0,0-1.42-.36,1.22,1.22,0,0,0-1.42,1.13c0,0.71.46,1.05,1.5,1.45,1.27,0.49,1.91,1.11,1.91,2.21s-0.85,2.18-2.63,2.18a3.87,3.87,0,0,1-1.92-.49Z" transform="translate(-254.46 -6842.24)"/><path class="cls-1" d="M423.5,6889.19a2.65,2.65,0,0,1-2.7,2.88,2.58,2.58,0,0,1-2.59-2.78,2.64,2.64,0,0,1,2.68-2.86A2.56,2.56,0,0,1,423.5,6889.19Zm-4.28.06a1.83,1.83,0,0,0,1.63,2.08,1.86,1.86,0,0,0,1.64-2.1A1.68,1.68,0,1,0,419.22,6889.24Z" transform="translate(-254.46 -6842.24)"/><path class="cls-1" d="M428.72,6891.75a3.78,3.78,0,0,1-1.56.31,2.57,2.57,0,0,1-2.7-2.76,2.76,2.76,0,0,1,2.91-2.88,3.16,3.16,0,0,1,1.37.29l-0.23.75a2.43,2.43,0,0,0-1.14-.26,1.88,1.88,0,0,0-1.91,2,1.86,1.86,0,0,0,1.88,2,2.79,2.79,0,0,0,1.21-.26Z" transform="translate(-254.46 -6842.24)"/><path class="cls-1" d="M431.09,6885a0.59,0.59,0,0,1-.62.6,0.58,0.58,0,0,1-.59-0.6,0.6,0.6,0,0,1,.61-0.61A0.59,0.59,0,0,1,431.09,6885Zm-1.09,6.93v-5.41h1v5.41h-1Z" transform="translate(-254.46 -6842.24)"/><path class="cls-1" d="M436.54,6890.64a9.19,9.19,0,0,0,.08,1.3h-0.88l-0.08-.68h0a2,2,0,0,1-1.66.81,1.54,1.54,0,0,1-1.65-1.56c0-1.31,1.16-2,3.25-2v-0.11a1.11,1.11,0,0,0-1.23-1.24,2.6,2.6,0,0,0-1.42.4l-0.22-.66a3.49,3.49,0,0,1,1.79-.47,1.92,1.92,0,0,1,2.06,2.2v2Zm-0.95-1.46c-1.07,0-2.29.17-2.29,1.22a0.86,0.86,0,0,0,.92.94,1.36,1.36,0,0,0,1.33-.91,1.09,1.09,0,0,0,0-.31v-0.94Z" transform="translate(-254.46 -6842.24)"/><path class="cls-1" d="M438.25,6884h1v7.94h-1V6884Z" transform="translate(-254.46 -6842.24)"/><path class="cls-1" d="M448.34,6884v6.54c0,0.48,0,1,0,1.4h-0.87l0-.94h0a2,2,0,0,1-1.82,1.06,2.47,2.47,0,0,1-2.33-2.75,2.59,2.59,0,0,1,2.42-2.9,1.81,1.81,0,0,1,1.63.82h0V6884h1Zm-1,4.73a1.68,1.68,0,0,0,0-.42,1.45,1.45,0,0,0-1.42-1.13c-1,0-1.62.9-1.62,2.08a1.73,1.73,0,0,0,1.6,2,1.5,1.5,0,0,0,1.44-1.17,1.66,1.66,0,0,0,0-.43v-0.94Z" transform="translate(-254.46 -6842.24)"/><path class="cls-1" d="M450.65,6889.41a1.73,1.73,0,0,0,1.86,1.88,3.52,3.52,0,0,0,1.5-.28l0.18,0.71a4.39,4.39,0,0,1-1.81.35,2.52,2.52,0,0,1-2.66-2.74,2.62,2.62,0,0,1,2.54-2.91,2.28,2.28,0,0,1,2.24,2.54,2.47,2.47,0,0,1,0,.46h-3.8Zm2.88-.7a1.4,1.4,0,0,0-1.37-1.59,1.62,1.62,0,0,0-1.51,1.59h2.88Z" transform="translate(-254.46 -6842.24)"/><path class="cls-1" d="M458.46,6884h1v7.94h-1V6884Z" transform="translate(-254.46 -6842.24)"/><path class="cls-1" d="M465,6890.64a9.38,9.38,0,0,0,.08,1.3h-0.88l-0.08-.68h0a2,2,0,0,1-1.65.81,1.54,1.54,0,0,1-1.66-1.56c0-1.31,1.16-2,3.26-2v-0.11a1.11,1.11,0,0,0-1.23-1.24,2.58,2.58,0,0,0-1.42.4l-0.23-.66a3.49,3.49,0,0,1,1.79-.47,1.92,1.92,0,0,1,2.06,2.2v2Zm-1-1.46c-1.07,0-2.29.17-2.29,1.22a0.86,0.86,0,0,0,.92.94,1.36,1.36,0,0,0,1.33-.91,1.08,1.08,0,0,0,0-.31v-0.94Z" transform="translate(-254.46 -6842.24)"/><path class="cls-1" d="M466.6,6890.95a2.79,2.79,0,0,0,1.31.38,0.86,0.86,0,0,0,1-.8,1.1,1.1,0,0,0-1-1,1.75,1.75,0,0,1-1.44-1.53,1.67,1.67,0,0,1,1.86-1.59,2.54,2.54,0,0,1,1.32.34l-0.24.71a2.11,2.11,0,0,0-1.11-.32,0.78,0.78,0,0,0-.89.74c0,0.44.31,0.65,1,.93a1.73,1.73,0,0,1,1.42,1.62c0,1-.75,1.63-2,1.63a3.08,3.08,0,0,1-1.52-.38Z" transform="translate(-254.46 -6842.24)"/><path class="cls-1" d="M329.23,6897.82h3.86v0.81h-2.92v2.51h2.7v0.8h-2.7v3.41h-0.94v-7.54Z" transform="translate(-254.46 -6842.24)"/><path class="cls-1" d="M338.26,6903.87c0,0.57,0,1.06,0,1.49h-0.83l-0.05-.88h0a1.91,1.91,0,0,1-1.7,1c-0.81,0-1.77-.48-1.77-2.37v-3.16h0.94v3c0,1,.3,1.73,1.14,1.73a1.36,1.36,0,0,0,1.23-.91,1.44,1.44,0,0,0,.08-0.5v-3.31h0.94v3.93Z" transform="translate(-254.46 -6842.24)"/><path class="cls-1" d="M340.27,6902.83a1.69,1.69,0,0,0,1.77,1.88,3.17,3.17,0,0,0,1.42-.28l0.17,0.71a4,4,0,0,1-1.72.34,2.46,2.46,0,0,1-2.53-2.74c0-1.63.91-2.91,2.41-2.91a2.24,2.24,0,0,1,2.13,2.54,2.5,2.5,0,0,1,0,.46h-3.61Zm2.74-.71a1.38,1.38,0,0,0-1.3-1.59,1.59,1.59,0,0,0-1.43,1.59H343Z" transform="translate(-254.46 -6842.24)"/><path class="cls-1" d="M345,6901.63c0-.63,0-1.19,0-1.69h0.82l0,1.08h0a1.57,1.57,0,0,1,1.43-1.18l0.26,0v0.93a1.39,1.39,0,0,0-.32,0A1.33,1.33,0,0,0,346,6902a3.05,3.05,0,0,0,0,.46v2.88H345v-3.72Z" transform="translate(-254.46 -6842.24)"/><path class="cls-1" d="M348,6904.79l2.31-3.19c0.24-.31.45-0.56,0.68-0.85v0h-2.78v-0.78h3.91v0.62l-2.3,3.14c-0.22.3-.42,0.58-0.66,0.85v0h3v0.78H348v-0.57Z" transform="translate(-254.46 -6842.24)"/><path class="cls-1" d="M356.64,6904.06a9.51,9.51,0,0,0,.07,1.3h-0.84l-0.07-.68h0a1.89,1.89,0,0,1-1.57.8,1.5,1.5,0,0,1-1.57-1.55c0-1.31,1.11-2,3.09-2v-0.11a1.09,1.09,0,0,0-1.17-1.24,2.38,2.38,0,0,0-1.35.4l-0.21-.66a3.19,3.19,0,0,1,1.7-.47c1.57,0,2,1.13,2,2.2v2Zm-0.9-1.46c-1,0-2.18.17-2.18,1.22a0.84,0.84,0,0,0,.87.94,1.3,1.3,0,0,0,1.26-.91,1.2,1.2,0,0,0,0-.31v-0.94Z" transform="translate(-254.46 -6842.24)"/><path class="cls-1" d="M358,6904.36a2.53,2.53,0,0,0,1.24.38,0.84,0.84,0,0,0,1-.81,1.08,1.08,0,0,0-.95-1,1.72,1.72,0,0,1-1.37-1.53,1.62,1.62,0,0,1,1.77-1.59,2.28,2.28,0,0,1,1.25.33l-0.22.72a1.93,1.93,0,0,0-1-.32,0.76,0.76,0,0,0-.85.74c0,0.45.3,0.65,1,.93a1.71,1.71,0,0,1,1.35,1.62,1.67,1.67,0,0,1-1.91,1.63,2.78,2.78,0,0,1-1.45-.38Z" transform="translate(-254.46 -6842.24)"/><path class="cls-1" d="M365.64,6903l-0.74,2.37h-1l2.44-7.54h1.1l2.45,7.54h-1l-0.77-2.37h-2.54Zm2.36-.77-0.71-2.17c-0.16-.49-0.26-0.94-0.37-1.38h0c-0.11.44-.21,0.91-0.36,1.37l-0.7,2.18H368Z" transform="translate(-254.46 -6842.24)"/><path class="cls-1" d="M370.87,6901.63c0-.63,0-1.19,0-1.69h0.82l0,1.08h0a1.57,1.57,0,0,1,1.44-1.18l0.25,0v0.93a1.39,1.39,0,0,0-.32,0,1.33,1.33,0,0,0-1.25,1.25,2.77,2.77,0,0,0,0,.46v2.88h-0.93v-3.72Z" transform="translate(-254.46 -6842.24)"/><path class="cls-1" d="M374.33,6901.41c0-.57,0-1,0-1.47h0.82l0,0.88h0a1.77,1.77,0,0,1,1.63-1,1.52,1.52,0,0,1,1.45,1.08h0a2.13,2.13,0,0,1,.58-0.71,1.68,1.68,0,0,1,1.13-.38c0.69,0,1.7.47,1.7,2.34v3.18h-0.91v-3.05c0-1-.37-1.67-1.12-1.67a1.24,1.24,0,0,0-1.12.88,1.79,1.79,0,0,0-.07.49v3.34h-0.91v-3.24c0-.86-0.36-1.48-1.07-1.48a1.31,1.31,0,0,0-1.15,1,1.38,1.38,0,0,0-.08.48v3.25h-0.91v-3.95Z" transform="translate(-254.46 -6842.24)"/><path class="cls-1" d="M386.75,6904.06a9.2,9.2,0,0,0,.07,1.3H386l-0.07-.68h0a1.89,1.89,0,0,1-1.57.8,1.5,1.5,0,0,1-1.57-1.55c0-1.31,1.11-2,3.09-2v-0.11a1.09,1.09,0,0,0-1.17-1.24,2.38,2.38,0,0,0-1.35.4l-0.21-.66a3.2,3.2,0,0,1,1.7-.47c1.57,0,2,1.13,2,2.2v2Zm-0.91-1.46c-1,0-2.17.17-2.17,1.22a0.84,0.84,0,0,0,.87.94,1.3,1.3,0,0,0,1.26-.91,1.11,1.11,0,0,0,0-.31v-0.94Z" transform="translate(-254.46 -6842.24)"/><path class="cls-1" d="M392.63,6897.42V6904c0,0.48,0,1,0,1.4h-0.83l0-.94h0a1.85,1.85,0,0,1-1.73,1.06c-1.24,0-2.21-1.11-2.21-2.75,0-1.8,1.06-2.89,2.3-2.89a1.7,1.7,0,0,1,1.55.81h0v-3.23h0.92Zm-0.92,4.73a1.79,1.79,0,0,0,0-.41,1.39,1.39,0,0,0-1.35-1.13c-1,0-1.54.89-1.54,2.08s0.52,2,1.52,2a1.43,1.43,0,0,0,1.37-1.17,1.83,1.83,0,0,0,0-.43v-0.94Z" transform="translate(-254.46 -6842.24)"/><path class="cls-1" d="M397.75,6904.06a9.74,9.74,0,0,0,.07,1.3H397l-0.08-.68h0a1.89,1.89,0,0,1-1.57.8,1.5,1.5,0,0,1-1.57-1.55c0-1.31,1.11-2,3.09-2v-0.11a1.09,1.09,0,0,0-1.17-1.24,2.37,2.37,0,0,0-1.35.4l-0.21-.66a3.19,3.19,0,0,1,1.7-.47c1.57,0,2,1.13,2,2.2v2Zm-0.9-1.46c-1,0-2.18.17-2.18,1.22a0.84,0.84,0,0,0,.87.94,1.3,1.3,0,0,0,1.26-.91,1.1,1.1,0,0,0,0-.31v-0.94Z" transform="translate(-254.46 -6842.24)"/><path class="cls-1" d="M399.08,6904.36a2.53,2.53,0,0,0,1.24.38,0.83,0.83,0,0,0,1-.81,1.08,1.08,0,0,0-.95-1,1.72,1.72,0,0,1-1.37-1.53,1.62,1.62,0,0,1,1.77-1.59,2.28,2.28,0,0,1,1.26.33l-0.22.72a1.94,1.94,0,0,0-1.05-.32,0.76,0.76,0,0,0-.85.74c0,0.45.3,0.65,1,.93a1.7,1.7,0,0,1,1.35,1.62,1.67,1.67,0,0,1-1.91,1.63,2.78,2.78,0,0,1-1.44-.38Z" transform="translate(-254.46 -6842.24)"/><path class="cls-1" d="M405.9,6899.94l1.12,3.2c0.13,0.36.25,0.78,0.34,1.11h0c0.1-.33.2-0.74,0.33-1.13l1-3.18h1l-1.4,3.86a8.43,8.43,0,0,1-1.76,3.39,2.6,2.6,0,0,1-1.15.63l-0.23-.82a2.4,2.4,0,0,0,.82-0.48,3.08,3.08,0,0,0,.79-1.09,0.74,0.74,0,0,0,.07-0.23,0.71,0.71,0,0,0-.07-0.26l-1.89-5h1Z" transform="translate(-254.46 -6842.24)"/><path class="cls-1" d="M417.39,6897.42V6904c0,0.48,0,1,0,1.4H416.6l0-.94h0a1.84,1.84,0,0,1-1.73,1.06c-1.24,0-2.21-1.11-2.21-2.75,0-1.8,1.06-2.89,2.3-2.89a1.7,1.7,0,0,1,1.55.81h0v-3.23h0.92Zm-0.92,4.73a1.91,1.91,0,0,0,0-.41,1.39,1.39,0,0,0-1.35-1.13c-1,0-1.54.89-1.54,2.08s0.52,2,1.52,2a1.44,1.44,0,0,0,1.37-1.17,2,2,0,0,0,0-.43v-0.94Z" transform="translate(-254.46 -6842.24)"/><path class="cls-1" d="M419.42,6902.83a1.68,1.68,0,0,0,1.76,1.88,3.19,3.19,0,0,0,1.42-.28l0.17,0.71a4,4,0,0,1-1.72.34,2.47,2.47,0,0,1-2.53-2.74c0-1.63.91-2.91,2.41-2.91,1.68,0,2.12,1.54,2.12,2.54a2.58,2.58,0,0,1,0,.46h-3.61Zm2.74-.71a1.38,1.38,0,0,0-1.3-1.59,1.59,1.59,0,0,0-1.43,1.59h2.73Z" transform="translate(-254.46 -6842.24)"/><path class="cls-1" d="M426.23,6904.17a3,3,0,0,0,1.65.49,1.31,1.31,0,0,0,1.5-1.29c0-.69-0.38-1.11-1.35-1.49-1.17-.45-1.89-1.1-1.89-2.15a2.1,2.1,0,0,1,2.32-2,3.12,3.12,0,0,1,1.57.37l-0.25.8a2.54,2.54,0,0,0-1.35-.36,1.18,1.18,0,0,0-1.35,1.13c0,0.71.44,1.05,1.42,1.45,1.21,0.49,1.82,1.11,1.82,2.22a2.2,2.2,0,0,1-2.5,2.18A3.54,3.54,0,0,1,426,6905Z" transform="translate(-254.46 -6842.24)"/><path class="cls-1" d="M432.08,6902.83a1.68,1.68,0,0,0,1.76,1.88,3.17,3.17,0,0,0,1.42-.28l0.17,0.71a4,4,0,0,1-1.72.34,2.47,2.47,0,0,1-2.53-2.74c0-1.63.91-2.91,2.41-2.91a2.24,2.24,0,0,1,2.12,2.54,2.54,2.54,0,0,1,0,.46h-3.61Zm2.74-.71a1.38,1.38,0,0,0-1.3-1.59,1.58,1.58,0,0,0-1.43,1.59h2.73Z" transform="translate(-254.46 -6842.24)"/><path class="cls-1" d="M441.23,6904.57a3.29,3.29,0,0,1-.73,2.48,2.74,2.74,0,0,1-1.88.65,3.2,3.2,0,0,1-1.71-.45l0.23-.76a2.73,2.73,0,0,0,1.51.43c1,0,1.66-.52,1.66-1.9v-0.59h0a1.8,1.8,0,0,1-1.63.9,2.38,2.38,0,0,1-2.19-2.64c0-1.83,1.14-2.86,2.33-2.86a1.7,1.7,0,0,1,1.6.92h0l0-.82h0.83c0,0.38,0,.83,0,1.48v3.14Zm-0.93-2.49a1.26,1.26,0,0,0-.06-0.43,1.34,1.34,0,0,0-1.31-1.05c-0.89,0-1.53.79-1.53,2,0,1.06.52,1.95,1.52,1.95a1.35,1.35,0,0,0,1.3-1,1.71,1.71,0,0,0,.08-0.53v-1Z" transform="translate(-254.46 -6842.24)"/><path class="cls-1" d="M447,6903.87c0,0.57,0,1.06,0,1.49h-0.83l-0.05-.88h0a1.91,1.91,0,0,1-1.7,1c-0.81,0-1.78-.48-1.78-2.37v-3.16h0.94v3c0,1,.31,1.73,1.15,1.73a1.36,1.36,0,0,0,1.23-.91,1.41,1.41,0,0,0,.08-0.5v-3.31H447v3.93Z" transform="translate(-254.46 -6842.24)"/><path class="cls-1" d="M448.51,6901.63c0-.63,0-1.19,0-1.69h0.82l0,1.08h0a1.57,1.57,0,0,1,1.44-1.18l0.25,0v0.93a1.36,1.36,0,0,0-.32,0,1.33,1.33,0,0,0-1.25,1.25,3.59,3.59,0,0,0,0,.46v2.88h-0.93v-3.72Z" transform="translate(-254.46 -6842.24)"/><path class="cls-1" d="M453,6898.43a0.57,0.57,0,0,1-.59.6,0.57,0.57,0,0,1-.56-0.6,0.59,0.59,0,0,1,.59-0.62A0.58,0.58,0,0,1,453,6898.43Zm-1,6.93v-5.41h0.94v5.41H452Z" transform="translate(-254.46 -6842.24)"/><path class="cls-1" d="M458.84,6897.42V6904c0,0.48,0,1,0,1.4h-0.83l0-.94h0a1.84,1.84,0,0,1-1.73,1.06c-1.24,0-2.21-1.11-2.21-2.75,0-1.8,1.06-2.89,2.31-2.89a1.7,1.7,0,0,1,1.55.81h0v-3.23h0.93Zm-0.93,4.73a1.62,1.62,0,0,0,0-.41,1.39,1.39,0,0,0-1.35-1.13c-1,0-1.54.89-1.54,2.08s0.52,2,1.52,2a1.43,1.43,0,0,0,1.37-1.17,1.67,1.67,0,0,0,0-.43v-0.94Z" transform="translate(-254.46 -6842.24)"/><path class="cls-1" d="M464,6904.06a9.67,9.67,0,0,0,.07,1.3h-0.84l-0.07-.68h0a1.89,1.89,0,0,1-1.57.8,1.5,1.5,0,0,1-1.57-1.55c0-1.31,1.1-2,3.09-2v-0.11a1.08,1.08,0,0,0-1.17-1.24,2.39,2.39,0,0,0-1.35.4l-0.21-.66a3.2,3.2,0,0,1,1.7-.47c1.57,0,2,1.13,2,2.2v2Zm-0.9-1.46c-1,0-2.18.17-2.18,1.22a0.84,0.84,0,0,0,.87.94,1.31,1.31,0,0,0,1.27-.91,1.26,1.26,0,0,0,0-.31v-0.94Z" transform="translate(-254.46 -6842.24)"/><path class="cls-1" d="M469.84,6897.42V6904c0,0.48,0,1,0,1.4h-0.83l0-.94h0a1.84,1.84,0,0,1-1.73,1.06c-1.24,0-2.21-1.11-2.21-2.75,0-1.8,1.06-2.89,2.3-2.89a1.7,1.7,0,0,1,1.55.81h0v-3.23h0.93Zm-0.93,4.73a1.82,1.82,0,0,0,0-.41,1.4,1.4,0,0,0-1.35-1.13c-1,0-1.54.89-1.54,2.08s0.52,2,1.52,2a1.43,1.43,0,0,0,1.37-1.17,1.87,1.87,0,0,0,0-.43v-0.94Z" transform="translate(-254.46 -6842.24)"/></svg>