<?xml version="1.0" standalone="no"?>
<!DOCTYPE svg PUBLIC "-//W3C//DTD SVG 20010904//EN"
 "http://www.w3.org/TR/2001/REC-SVG-20010904/DTD/svg10.dtd">
<svg version="1.0" xmlns="http://www.w3.org/2000/svg"
 width="835.000000pt" height="835.000000pt" viewBox="0 0 835.000000 835.000000"
 preserveAspectRatio="xMidYMid meet">

<g transform="translate(0.000000,835.000000) scale(0.100000,-0.100000)"
fill="white" stroke="none">
<path d="M4800 7479 c-230 -29 -454 -116 -655 -253 -110 -75 -286 -243 -366
-349 -172 -228 -286 -499 -336 -797 -12 -72 -17 -196 -20 -505 l-5 -411 -519
4 -519 4 0 -639 0 -640 107 -6 c58 -4 293 -7 521 -7 l415 0 -5 -1560 -5 -1560
642 0 642 0 6 1052 c4 578 7 1280 7 1560 l0 508 645 0 645 0 0 323 c0 178 3
466 7 640 l6 317 -651 0 -652 0 0 348 c0 369 6 432 50 525 30 64 96 136 145
158 37 17 78 19 573 19 l532 0 0 633 0 634 -202 6 c-274 9 -927 6 -1008 -4z"/>
</g>
</svg>
