<?xml version="1.0" standalone="no"?>
<!DOCTYPE svg PUBLIC "-//W3C//DTD SVG 20010904//EN"
 "http://www.w3.org/TR/2001/REC-SVG-20010904/DTD/svg10.dtd">
<svg version="1.0" xmlns="http://www.w3.org/2000/svg"
 width="834.000000pt" height="835.000000pt" viewBox="0 0 834.000000 835.000000"
 preserveAspectRatio="xMidYMid meet">

<g transform="translate(0.000000,835.000000) scale(0.100000,-0.100000)"
fill="white" stroke="none">
<path d="M2430 7280 c-352 -28 -667 -175 -920 -429 -210 -211 -336 -445 -402
-744 l-23 -102 0 -1835 c0 -1736 1 -1840 18 -1925 63 -308 193 -553 406 -765
261 -260 556 -397 923 -430 144 -13 3380 -13 3533 -1 662 56 1183 513 1327
1164 l23 102 0 1850 0 1850 -23 102 c-133 601 -586 1037 -1197 1150 -82 16
-248 17 -1830 19 -957 1 -1783 -2 -1835 -6z m3934 -741 c73 -27 148 -96 183
-167 24 -50 28 -68 28 -147 0 -73 -5 -99 -23 -136 -37 -75 -87 -125 -160 -161
-59 -29 -76 -33 -147 -33 -71 0 -88 4 -147 33 -73 36 -123 86 -160 161 -18 37
-23 63 -23 136 0 79 4 97 28 147 34 70 110 140 180 167 70 27 169 27 241 0z
m-1774 -424 c388 -81 708 -250 988 -520 747 -719 818 -1876 165 -2685 -77 -96
-245 -258 -345 -333 -217 -162 -456 -276 -717 -341 -182 -46 -235 -51 -491
-51 -228 1 -254 3 -375 28 -763 162 -1351 719 -1540 1461 -46 182 -59 293 -59
496 0 196 17 327 65 508 180 686 732 1234 1421 1411 198 51 287 60 538 56 196
-3 241 -7 350 -30z"/>
<path d="M3995 5495 c-284 -46 -539 -177 -745 -384 -259 -261 -390 -579 -390
-946 0 -224 46 -418 145 -613 238 -467 729 -752 1255 -728 203 9 352 47 535
136 138 67 258 155 373 274 145 151 245 315 307 501 91 272 92 588 1 858 -111
330 -362 619 -671 772 -126 62 -203 89 -330 117 -121 26 -359 32 -480 13z"/>
</g>
</svg>
