<?xml version="1.0" standalone="no"?>
<!DOCTYPE svg PUBLIC "-//W3C//DTD SVG 20010904//EN"
 "http://www.w3.org/TR/2001/REC-SVG-20010904/DTD/svg10.dtd">
<svg version="1.0" xmlns="http://www.w3.org/2000/svg"
 width="835.000000pt" height="835.000000pt" viewBox="0 0 835.000000 835.000000"
 preserveAspectRatio="xMidYMid meet">

<g transform="translate(0.000000,835.000000) scale(0.100000,-0.100000)"
fill="white" stroke="none">
<path d="M3600 6970 c-1279 -29 -1760 -50 -2105 -96 -815 -106 -1126 -438
-1233 -1315 -15 -129 -17 -257 -17 -1224 0 -1098 5 -1297 41 -1615 67 -599
269 -955 636 -1124 275 -127 659 -190 1383 -227 321 -17 2165 -17 2820 -1 966
24 1239 32 1385 43 449 32 859 118 1076 224 105 51 216 148 289 250 165 230
263 601 306 1155 13 178 19 1565 8 1950 -24 804 -119 1217 -345 1497 -143 177
-346 286 -641 343 -248 48 -806 98 -1443 131 -270 13 -1684 19 -2160 9z m838
-2187 c560 -328 1021 -600 1026 -604 4 -4 -56 -45 -135 -92 -79 -46 -529 -310
-999 -587 -470 -276 -870 -511 -887 -522 l-33 -20 0 1211 c0 666 3 1211 6
1211 3 0 463 -268 1022 -597z"/>
</g>
</svg>
